# Wavefront OBJ file written 2026-01-30T14:35:20
o bodyCassoneAperto_mm_edgeMesh

# points : 300
# lines  : 336

# <points count="300">
v 2.44471 -0.952705 -0.202457
v 2.4791 -0.954715 -0.188575
v 2.44471 0.952705 -0.202457
v 2.4791 0.954715 -0.188575
v 1.38569 0.883925 -0.527677
v -2.79676 0.340335 -0.19368
v -2.79676 -0.340335 -0.19368
v -2.79676 0.875735 -0.19368
v -2.79676 -0.875735 -0.19368
v -2.27631 0.942575 -0.237464
v -2.27631 -0.942575 -0.237464
v 1.38569 -0.883925 -0.527677
v -1.18827 -0.881865 -0.525386
v -2.75253 -0.870825 -0.134577
v -2.75253 0.870825 -0.134577
v -1.18827 0.881865 -0.525386
v -2.26109 -0.943315 -0.189084
v -2.27631 -0.943225 -0.186087
v -2.84147 -0.903115 0.455683
v -2.26109 0.943305 -0.189084
v -2.84147 0.903115 0.455683
v 2.4666 -0.454095 -0.194309
v 2.51127 -0.875445 0.142123
v 2.51044 -0.881015 0.204863
v 2.51044 0.881015 0.204863
v 2.51127 0.875445 0.142123
v 2.4666 0.454095 -0.194309
v 1.99168 -0.823445 0.320013
v -2.63969 0.313265 -0.323382
v -2.63969 -0.313265 -0.323382
v 1.99168 0.823445 0.320013
v -0.779581 -0.814705 0.465703
v -0.779581 0.814705 0.465703
v -2.74355 -0.796855 0.1
v -0.956597 -0.657435 0.1
v -0.956597 0.657435 0.1
v -2.74355 0.796855 0.1
v 2.74771 -0.600745 -0.370705
v 2.74771 0.600745 -0.370705
v 2.46442 -0.869565 -0.199182
v 2.44471 -0.454095 -0.424041
v 2.44471 -0.454095 -0.202457
v 2.4666 -0.953615 -0.194309
v 2.52618 -0.897855 0.140903
v 2.52534 -0.903665 0.203643
v 2.52534 0.903665 0.203643
v 2.52618 0.897855 0.140903
v 1.38569 -0.883925 -0.434814
v 1.38569 -0.454095 -0.527677
v 2.44471 0.454095 -0.424041
v 2.46442 0.869565 -0.199182
v 2.44471 0.454095 -0.202457
v 1.38569 0.454095 -0.527677
v 2.4666 0.953615 -0.194309
v 1.38569 0.883925 -0.434814
v 1.99168 -0.863135 0.320013
v -1.18827 -0.454095 -0.525386
v -1.18827 0.454095 -0.525386
v -2.27631 0.384125 -0.516274
v -2.27631 -0.384125 -0.516274
v -2.77543 0.313265 -0.309152
v -2.77543 -0.313265 -0.309152
v -2.63969 0.340335 -0.205981
v -2.63969 -0.340335 -0.205981
v 1.99168 0.863125 0.320013
v -2.27631 0.849035 -0.237464
v -2.644 0.781685 -0.209129
v -2.27631 -0.849045 -0.237464
v -2.644 -0.781685 -0.209129
v -2.26109 -0.879175 -0.189084
v -0.779581 -0.854395 0.465703
v -2.26109 0.879175 -0.189084
v -2.644 -0.781685 -0.143567
v -2.644 0.781685 -0.143567
v -0.779581 0.854395 0.465703
v -2.74355 -0.796855 0.468343
v -0.956597 -0.657435 0.699493
v -2.74355 0.796855 0.468343
v -0.956597 0.657435 0.699493
v 2.82307 -5e-06 -0.20278
v 2.82307 -0.600745 -0.20278
v 2.48161 -0.953875 -0.203514
v 2.7854 -0.600745 -0.286742
v 2.74771 -0.448655 -0.370705
v 2.74771 -5e-06 -0.370705
v 2.82307 0.600745 -0.20278
v 2.7854 0.600745 -0.286742
v 2.74771 0.448655 -0.370705
v 2.44471 -0.937275 -0.285484
v 2.44471 -0.921845 -0.36851
v 2.44471 -0.885295 -0.424041
v 2.48161 0.953875 -0.203514
v 2.83574 -5e-06 0.084913
v 2.83594 -0.553515 0.086323
v 2.83594 0.553515 0.086323
v 2.25525 -0.983055 0.080043
v 2.53025 -0.869625 -0.16395
v 1.65283 -0.980885 0.095823
v 2.84147 -0.546285 0.125103
v 2.84147 -5e-06 0.125103
v 2.84147 0.546285 0.125103
v 1.4008 -0.950205 -0.296968
v 1.91519 -0.454095 -0.475859
v 2.44471 0.937275 -0.285484
v 2.44471 0.885295 -0.424041
v 2.44471 0.921845 -0.36851
v 1.91519 0.454095 -0.475859
v 2.25525 0.983055 0.080043
v 2.53025 0.869625 -0.16395
v 1.65283 0.980875 0.095823
v 1.4008 0.950205 -0.296968
v 2.1806 -0.863725 0.310083
v 1.34232 -0.861085 0.354153
v 1.28671 -0.786055 0.531033
v 1.30659 -0.860975 0.356033
v 1.29776 -0.860945 0.356493
v 2.1806 0.863725 0.310083
v 1.98881 -0.841505 0.369303
v 1.28729 -0.760235 0.585893
v 1.0613 -0.734055 0.655663
v 1.98881 0.841505 0.369303
v 0.81059 0.883925 -0.430266
v 0.235495 0.883925 -0.425718
v -1.73229 0.41911 -0.52083
v -2.76557 -5e-06 -0.357447
v -2.76557 0.429055 -0.362445
v -2.76557 -0.429055 -0.362445
v -1.73229 -0.41911 -0.52083
v -2.77425 -5e-06 -0.311929
v -2.76557 0.802625 -0.317465
v -2.79676 0.437865 -0.19368
v -2.76557 -0.802635 -0.317465
v -2.79676 -0.437865 -0.19368
v -2.27631 0.793795 -0.469628
v -2.27631 -0.793795 -0.469628
v -1.18827 -0.825795 -0.525386
v 1.34232 0.861085 0.354153
v 1.28671 0.786055 0.531033
v 1.30659 0.860965 0.356033
v 1.28729 0.760235 0.585893
v 1.0613 0.734055 0.655663
v 1.29776 0.860945 0.356493
v 0.813725 -0.883925 -0.527677
v 0.241765 -0.883925 -0.527677
v 0.81059 -0.883925 -0.430266
v 0.235495 -0.883925 -0.425718
v -0.818623 -0.883925 -0.527677
v -0.288429 -0.883925 -0.527677
v -0.309925 -0.883925 -0.421405
v -0.855345 -0.883925 -0.417091
v -0.826918 -0.883925 -0.527677
v -1.1661 -0.883925 -0.527677
v -1.18827 -0.887495 -0.409624
v -0.862458 -0.883925 -0.417035
v -1.1703 -0.883925 -0.4146
v -1.19953 -0.943315 -0.245723
v -1.46157 -0.975875 0.098203
v -2.04762 -0.974445 0.097433
v 1.13043 -0.860415 0.365293
v 0.235265 -0.857595 0.412353
v 0.178835 -0.857415 0.415323
v 0.459455 -0.664335 0.841483
v 0.365465 -0.653445 0.870503
v 0.459455 0.664325 0.841483
v 0.365465 0.653445 0.870503
v 0.170015 -0.857385 0.415783
v 0.065545 -0.857055 0.421273
v 0.127475 -0.672015 0.839713
v -2.75253 -5e-06 -0.134577
v -2.36598 -0.871845 -0.165669
v -2.36598 0.871845 -0.165669
v -2.82775 -0.898135 0.364663
v -2.82775 0.898135 0.364663
v -1.18827 0.825785 -0.525386
v 0.813725 0.883925 -0.527677
v 0.241765 0.883925 -0.527677
v -0.288429 0.883925 -0.527677
v -0.818623 0.883925 -0.527677
v -0.826918 0.883925 -0.527677
v 1.13043 0.860415 0.365293
v 0.235265 0.857595 0.412353
v 0.178835 0.857415 0.415323
v -0.855345 0.883925 -0.417091
v -0.309925 0.883925 -0.421405
v -1.1661 0.883925 -0.527677
v -1.18827 0.887485 -0.409624
v -1.1703 0.883925 -0.4146
v -0.862458 0.883925 -0.417035
v -1.19953 0.943305 -0.245723
v -1.46157 0.975875 0.098203
v -2.04762 0.974445 0.097433
v 0.170015 0.857385 0.415783
v -2.05748 -0.977665 0.111063
v -1.45348 -0.977665 0.110543
v 0.127475 0.672015 0.839713
v 0.053155 -0.677815 0.830103
v -0.747308 -0.760255 0.681423
v 0.053155 0.677805 0.830103
v 0.065545 0.857055 0.421273
v -0.747308 0.760255 0.681423
v -0.858684 -0.748955 0.712153
v -0.858684 0.748955 0.712153
v -1.51961 -0.800342 0.626663
v -2.18054 -0.851728 0.541173
v -2.27631 0.943225 -0.186087
v -2.05748 0.977665 0.111063
v -1.45348 0.977665 0.110543
v -2.18054 0.851728 0.541173
v -1.51961 0.800342 0.626663
v -2.84147 -5e-06 0.455683
v -1.85008 -0.727145 0.583918
v -2.74355 -5e-06 0.468343
v -0.956597 -5e-06 0.699493
v -1.85008 0.727145 0.583918
v 2.7737 -0.600745 -0.20278
v 2.49891 -0.869625 -0.200585
v 2.7737 -5e-06 -0.20278
v 2.7363 -0.588225 -0.360029
v 2.7363 -0.439305 -0.360029
v 2.7363 -5e-06 -0.360029
v 2.7363 0.439305 -0.360029
v 2.7737 0.600745 -0.20278
v 2.7363 0.588225 -0.360029
v 2.44471 -0.454095 -0.285484
v 2.44471 -0.454095 -0.36851
v 2.46442 -0.454095 -0.199182
v 2.49891 0.869625 -0.200585
v 2.82083 -5e-06 0.086133
v 2.82103 -0.545025 0.087543
v 2.82103 0.545025 0.087543
v 2.82656 -5e-06 0.126323
v 2.82656 -0.538095 0.126323
v 2.82656 0.538085 0.126323
v 2.25525 -0.454095 0.080043
v 1.65283 -0.454095 0.095823
v 2.30969 -0.903115 0.139553
v 1.60922 -0.900605 0.169713
v 1.4008 -0.454095 -0.296968
v 1.38569 -0.454095 -0.434814
v 2.44471 0.454095 -0.285484
v 2.44471 0.454095 -0.36851
v 1.38569 0.454095 -0.434814
v 1.31822 -0.798565 -0.403942
v 0.77704 -0.798565 -0.401242
v 0.235855 -0.798565 -0.398543
v 2.46442 0.454095 -0.199182
v 2.25525 0.454095 0.080043
v 1.65283 0.454095 0.095823
v 1.4008 0.454095 -0.296968
v 1.31822 0.798555 -0.403942
v 0.235855 0.798555 -0.398543
v 0.77704 0.798555 -0.401242
v 1.34232 -0.821395 0.354153
v 1.30659 -0.821285 0.356033
v 1.13043 -0.820725 0.365293
v -2.63969 -5e-06 -0.326158
v -2.64064 0.437285 -0.206673
v -2.644 -5e-06 -0.143567
v -2.644 0.340505 -0.143567
v -2.64064 -0.437285 -0.206673
v -2.644 -0.340505 -0.143567
v 1.34232 0.821395 0.354153
v 1.30659 0.821285 0.356033
v 1.13043 0.820725 0.365293
v -2.27631 0.454565 -0.237464
v -2.37001 0.829715 -0.232619
v -2.27631 -0.454575 -0.237464
v -2.37001 -0.829715 -0.232619
v -2.26109 -0.454095 -0.189084
v -2.04762 -0.454095 0.097433
v -2.37001 -0.829715 -0.165609
v -1.18827 -0.454095 -0.409624
v -1.19953 -0.454095 -0.245723
v -1.46157 -0.454095 0.098203
v 0.235265 -0.817905 0.412353
v 0.228495 -0.798565 -0.398483
v -0.86441 -0.798565 -0.389544
v -0.872158 -0.798565 -0.389544
v -0.317957 -0.798565 -0.394013
v 0.178835 -0.817725 0.415323
v 0.235265 0.817905 0.412353
v 0.065545 -0.817375 0.421273
v -2.26109 0.454095 -0.189084
v -2.04762 0.454095 0.097433
v -2.37001 0.829715 -0.165609
v -1.18827 0.454095 -0.409624
v -1.19953 0.454095 -0.245723
v -1.46157 0.454095 0.098203
v 0.228495 0.798555 -0.398483
v -0.86441 0.798555 -0.389544
v -0.317957 0.798555 -0.394013
v -0.872158 0.798555 -0.389544
v -1.08049 -0.798565 -0.389544
v 0.178835 0.817725 0.415323
v 0.065545 0.817375 0.421273
v -1.08049 0.798555 -0.389544
v -1.85008 -0.727145 0.1
v -0.956597 0 0.1
v -2.74355 0 0.1
v -1.85008 0.727145 0.1
# </points>

# <edges count="336">
l 80 81
l 81 82
l 83 38
l 38 84
l 84 85
l 86 80
l 39 87
l 88 39
l 85 88
l 1 82
l 1 89
l 89 90
l 90 91
l 91 41
l 42 1
l 40 43
l 92 86
l 93 94
l 95 93
l 43 96
l 43 2
l 97 2
l 96 98
l 94 44
l 99 45
l 100 99
l 101 100
l 45 44
l 101 46
l 95 47
l 98 102
l 47 46
l 102 48
l 49 103
l 103 41
l 92 3
l 104 3
l 105 106
l 50 105
l 106 104
l 3 52
l 53 107
l 107 50
l 54 51
l 108 54
l 4 54
l 4 109
l 110 108
l 111 110
l 55 111
l 112 45
l 56 113
l 56 114
l 113 115
l 115 116
l 46 117
l 118 112
l 119 118
l 120 119
l 117 121
l 5 53
l 5 55
l 122 55
l 123 122
l 59 124
l 124 58
l 125 126
l 125 127
l 57 128
l 128 60
l 129 61
l 61 6
l 62 129
l 7 62
l 126 130
l 6 131
l 63 6
l 132 127
l 133 7
l 7 64
l 134 59
l 8 130
l 131 8
l 132 9
l 9 133
l 60 135
l 136 57
l 137 65
l 65 138
l 139 137
l 121 140
l 140 141
l 142 139
l 134 10
l 10 66
l 8 10
l 135 11
l 11 9
l 68 11
l 70 68
l 12 143
l 49 12
l 143 144
l 48 12
l 48 145
l 145 146
l 147 148
l 148 144
l 149 150
l 146 149
l 147 151
l 13 136
l 151 152
l 152 13
l 13 153
l 154 155
l 150 154
l 153 156
l 157 158
l 156 157
l 116 159
l 159 160
l 160 161
l 162 120
l 163 162
l 141 164
l 164 165
l 161 166
l 167 166
l 71 167
l 163 168
l 66 72
l 69 73
l 14 169
l 170 14
l 74 67
l 169 15
l 15 171
l 14 172
l 15 173
l 174 58
l 5 175
l 175 176
l 176 177
l 177 178
l 179 178
l 180 142
l 180 181
l 182 181
l 183 184
l 184 123
l 185 179
l 16 174
l 16 185
l 186 16
l 187 188
l 188 183
l 189 186
l 190 189
l 191 190
l 192 182
l 17 70
l 158 17
l 17 18
l 193 18
l 18 170
l 194 193
l 195 165
l 168 196
l 197 71
l 198 195
l 192 199
l 75 199
l 75 200
l 196 201
l 202 198
l 19 172
l 203 204
l 201 203
l 204 19
l 72 20
l 20 191
l 205 20
l 171 205
l 206 207
l 173 21
l 21 208
l 209 202
l 208 209
l 19 210
l 210 21
l 77 211
l 211 76
l 76 212
l 212 78
l 213 77
l 79 213
l 214 78
l 79 214
l 215 216
l 217 215
l 38 218
l 219 220
l 220 221
l 222 217
l 223 39
l 216 40
l 97 40
l 42 224
l 224 225
l 225 41
l 226 42
l 226 22
l 43 22
l 227 222
l 228 229
l 230 228
l 231 232
l 233 231
l 234 22
l 234 235
l 229 23
l 24 23
l 23 44
l 232 24
l 45 24
l 25 233
l 26 230
l 26 25
l 47 26
l 25 46
l 236 237
l 235 238
l 238 239
l 239 49
l 227 51
l 51 109
l 240 52
l 241 240
l 50 241
l 53 242
l 243 48
l 243 244
l 244 245
l 52 246
l 246 27
l 27 54
l 27 247
l 248 247
l 248 249
l 242 249
l 55 250
l 251 252
l 252 250
l 56 28
l 114 28
l 28 253
l 253 254
l 254 255
l 29 61
l 29 63
l 62 30
l 256 29
l 30 256
l 64 30
l 63 257
l 258 259
l 260 64
l 261 258
l 31 65
l 31 138
l 262 31
l 263 262
l 264 263
l 59 265
l 266 66
l 257 67
l 67 266
l 267 60
l 69 260
l 268 69
l 68 268
l 269 267
l 270 269
l 70 271
l 57 272
l 272 273
l 274 270
l 273 274
l 255 275
l 245 276
l 277 278
l 276 279
l 279 277
l 275 280
l 264 281
l 280 282
l 265 283
l 283 284
l 285 72
l 73 261
l 271 73
l 74 259
l 74 285
l 286 58
l 287 286
l 288 287
l 284 288
l 289 251
l 290 291
l 291 289
l 292 290
l 293 155
l 278 293
l 282 32
l 32 71
l 32 197
l 294 281
l 295 294
l 295 33
l 75 33
l 33 200
l 296 292
l 187 296
l 34 76
l 297 34
l 35 297
l 77 35
l 79 36
l 36 298
l 298 35
l 34 299
l 37 78
l 299 37
l 300 36
l 37 300
# </edges>
