# Wavefront OBJ file written 2026-02-02T11:21:32
o FR_mm_edgeMesh

# points : 1082
# lines  : 1210

# <points count="1082">
v 2.04401 -0.961235 -0.140507
v 2.09481 -1.00115 -0.226631
v 2.02295 -1.00115 -0.19879
v 2.25251 -0.961225 -0.319813
v 2.21074 -1.00115 -0.409952
v 2.18994 -1.00115 -0.340622
v 2.2316 -0.961245 -0.578089
v 2.12943 -1.00115 -0.604995
v 2.17458 -1.00115 -0.54636
v 1.9958 -0.961225 -0.726742
v 1.90978 -1.00115 -0.669219
v 1.98761 -1.00115 -0.665791
v 1.71711 -0.961065 -0.641188
v 1.71578 -1.00115 -0.543366
v 1.76507 -1.00115 -0.599082
v 1.62359 -0.961115 -0.397136
v 1.7051 -1.00115 -0.334514
v 1.68933 -1.00115 -0.404966
v 1.77591 -0.961055 -0.172938
v 1.87942 -1.00115 -0.193799
v 1.80948 -1.00115 -0.225547
v 2.02338 -0.967665 -0.021557
v 2.13969 -0.967665 -0.054957
v 2.11233 -0.883035 -0.019777
v 2.2414 -0.967665 -0.116847
v 2.33976 -0.967665 -0.229172
v 2.384 -0.967665 -0.333946
v 2.39674 -0.883035 -0.292269
v 2.395 -0.967665 -0.445934
v 2.36119 -0.967665 -0.586959
v 1.95102 -0.967665 -0.84199
v 1.8303 -0.967665 -0.826972
v 1.98679 -0.883035 0.005483
v 1.90391 -0.883035 0.005533
v 2.03227 -0.883035 -3.7e-05
v 2.22535 -0.883035 -0.076207
v 2.18699 -0.883035 -0.053017
v 2.33985 -0.883035 -0.18591
v 2.28823 -0.883035 -0.126067
v 2.36353 -0.883035 -0.222174
v 2.41942 -0.883035 -0.409023
v 2.41513 -0.883035 -0.366867
v 2.30002 -0.967665 -0.684206
v 2.39789 -0.883035 -0.560052
v 2.41639 -0.883035 -0.485477
v 2.34327 -0.883035 -0.667419
v 2.38194 -0.883035 -0.59975
v 2.21203 -0.967665 -0.76197
v 2.07151 -0.967665 -0.825499
v 1.99219 -0.883035 -0.862733
v 1.86384 -0.883035 -0.857159
v 1.90931 -0.883035 -0.862682
v 2.07361 -0.883035 -0.848446
v 1.68888 -0.967665 -0.765166
v 1.59978 -0.967665 -0.688483
v 1.70913 -0.883035 -0.80418
v 1.60789 -0.883035 -0.731137
v 1.78377 -0.883035 -0.837421
v 1.67074 -0.883035 -0.780991
v 1.53722 -0.967665 -0.591992
v 1.5014 -0.967665 -0.451392
v 1.5108 -0.967665 -0.339279
v 1.47972 -0.883035 -0.371724
v 1.55352 -0.967665 -0.233975
v 1.65027 -0.967665 -0.120457
v 1.86691 -0.967665 -0.022517
v 1.75107 -0.967665 -0.057337
v 1.82248 -0.883035 -0.008757
v 1.70422 -0.883035 -0.055137
v 1.77893 -0.883035 -0.021997
v 1.63758 -0.883035 -0.100627
v 2.25852 -0.883035 -0.756578
v 2.29155 -0.883035 -0.727201
v 2.11719 -0.883035 -0.835208
v 2.19189 -0.883035 -0.80206
v 1.53257 -0.883035 -0.635027
v 1.55626 -0.883035 -0.671291
v 1.48097 -0.883035 -0.490333
v 1.49936 -0.883035 -0.564931
v 1.47669 -0.883035 -0.448178
v 1.51418 -0.883035 -0.257451
v 1.49821 -0.883035 -0.297149
v 1.60456 -0.883035 -0.129997
v 1.55283 -0.883035 -0.189782
v 2.02856 -0.831485 0.006513
v 2.15291 -0.831485 -0.029187
v 2.26165 -0.831485 -0.095357
v 2.36677 -0.831485 -0.215406
v 2.41406 -0.831485 -0.327417
v 2.42581 -0.831485 -0.447143
v 2.38969 -0.831485 -0.597868
v 1.95122 -0.831485 -0.870503
v 1.82216 -0.831485 -0.854443
v 2.13223 -0.671665 -0.069517
v 2.23 -0.671665 -0.129007
v 2.32449 -0.671665 -0.236915
v 2.36701 -0.671665 -0.337632
v 2.37758 -0.671665 -0.445287
v 2.3451 -0.671665 -0.580764
v 2.3243 -0.831485 -0.701836
v 2.23024 -0.831485 -0.784969
v 2.28631 -0.671665 -0.67425
v 2.08004 -0.831485 -0.852867
v 2.20173 -0.671665 -0.749001
v 2.06674 -0.671665 -0.810031
v 1.95091 -0.671665 -0.825889
v 1.67101 -0.831485 -0.788385
v 1.83484 -0.671665 -0.811447
v 1.57576 -0.831485 -0.706408
v 1.69899 -0.671665 -0.752072
v 1.50889 -0.831485 -0.603248
v 1.61333 -0.671665 -0.678361
v 1.47059 -0.831485 -0.452978
v 1.55321 -0.671665 -0.585601
v 1.57161 -0.671665 -0.620285
v 1.5188 -0.671665 -0.450533
v 1.48064 -0.831485 -0.333119
v 1.52631 -0.831485 -0.22054
v 1.52782 -0.671665 -0.342758
v 1.62971 -0.831485 -0.099217
v 1.56891 -0.671665 -0.241531
v 1.73749 -0.831485 -0.031727
v 1.66184 -0.671665 -0.132477
v 1.75874 -0.671665 -0.071797
v 1.86132 -0.831485 0.005493
v 1.87009 -0.671665 -0.038327
v 2.02041 -0.671665 -0.037407
v 2.03047 -0.932919 -0.166523
v 2.22257 -0.932943 -0.325907
v 2.11328 -0.932966 -0.201013
v 2.20671 -0.932892 -0.560011
v 2.24339 -0.932943 -0.407533
v 1.99593 -0.932923 -0.69824
v 2.15273 -0.932969 -0.627487
v 1.73897 -0.933085 -0.627096
v 1.90509 -0.932938 -0.699305
v 1.65034 -0.933048 -0.404029
v 1.68981 -0.932804 -0.556241
v 1.7856 -0.9331 -0.195428
v 1.67716 -0.93284 -0.323749
v 1.87178 -0.93279 -0.167823
v 1.80997 -0.856265 -0.35781
v 1.78814 -0.856265 -0.429717
v 1.80167 -0.856265 -0.482818
v 1.84794 -0.856265 -0.544117
v 1.90802 -0.856265 -0.570375
v 1.98884 -0.856265 -0.570448
v 2.0443 -0.856265 -0.545378
v 2.09389 -0.856265 -0.486481
v 2.10663 -0.856265 -0.433349
v 2.08897 -0.856265 -0.36054
v 2.05036 -0.856265 -0.316449
v 2.02372 -0.903417 -0.344865
v 1.97735 -0.856265 -0.284467
v 1.92393 -0.856265 -0.284793
v 1.84869 -0.856265 -0.312374
v 2.05448 -0.856265 -0.540776
v 2.09945 -0.871198 -0.538544
v 2.09284 -0.856265 -0.490864
v 2.10925 -0.856265 -0.422405
v 2.13567 -0.87128 -0.387864
v 2.0915 -0.856265 -0.363432
v 1.91887 -0.856265 -0.575117
v 1.94933 -0.871258 -0.606484
v 1.98507 -0.856265 -0.572152
v 1.80513 -0.856265 -0.496382
v 1.79801 -0.87143 -0.54056
v 1.84714 -0.856265 -0.543768
v 1.90853 -0.856265 -0.284887
v 1.86319 -0.87143 -0.268655
v 1.84904 -0.856265 -0.31196
v 1.8011 -0.856265 -0.368214
v 1.7597 -0.871408 -0.390126
v 1.78775 -0.856265 -0.428176
v 2.04303 -0.856265 -0.308079
v 2.0305 -0.871231 -0.267851
v 1.9819 -0.856265 -0.284439
v 2.03765 -0.957758 -0.156659
v 2.04309 -0.957831 -0.141476
v 2.12414 -0.96141 -0.171171
v 2.12622 -0.961944 -0.172855
v 2.2508 -0.957037 -0.319732
v 2.23542 -0.95777 -0.325021
v 2.11671 -0.957784 -0.189417
v 2.27577 -0.961435 -0.395682
v 2.27557 -0.962227 -0.39949
v 2.23091 -0.958361 -0.577209
v 2.21558 -0.95775 -0.568625
v 2.25536 -0.957772 -0.402892
v 2.18108 -0.961392 -0.644202
v 2.17958 -0.961751 -0.645202
v 1.99623 -0.957302 -0.725315
v 1.99404 -0.957766 -0.710015
v 2.16429 -0.957792 -0.633112
v 1.91006 -0.961427 -0.730924
v 1.9065 -0.962136 -0.730007
v 1.72058 -0.951943 -0.639988
v 1.72742 -0.957844 -0.632642
v 1.90737 -0.957776 -0.711129
v 1.66752 -0.96148 -0.58644
v 1.66282 -0.963736 -0.575921
v 1.62633 -0.953321 -0.398612
v 1.63841 -0.957825 -0.39929
v 1.68084 -0.957698 -0.56465
v 1.63888 -0.961488 -0.325179
v 1.64381 -0.963378 -0.316938
v 1.77641 -0.951402 -0.17652
v 1.78237 -0.957852 -0.183761
v 1.66438 -0.957717 -0.322673
v 1.84412 -0.961474 -0.141018
v 1.8571 -0.963869 -0.139013
v 1.86496 -0.957691 -0.157853
v 1.87038 -0.961685 -0.039887
v 2.02015 -0.961685 -0.038967
v 2.1315 -0.961685 -0.070947
v 2.22885 -0.961685 -0.130177
v 2.323 -0.961685 -0.237703
v 2.36534 -0.961685 -0.337994
v 2.37588 -0.961685 -0.445193
v 2.34351 -0.961685 -0.580186
v 2.28498 -0.961685 -0.673273
v 2.20075 -0.961685 -0.74771
v 2.06624 -0.961685 -0.808522
v 1.95089 -0.961685 -0.824308
v 1.83532 -0.961685 -0.809932
v 1.69995 -0.961685 -0.750769
v 1.61468 -0.961685 -0.677367
v 1.5548 -0.961685 -0.585003
v 1.52051 -0.961685 -0.450417
v 1.52949 -0.961685 -0.3431
v 1.5704 -0.961685 -0.2423
v 1.66301 -0.961685 -0.133637
v 1.75951 -0.961685 -0.073217
v 1.9058 -0.880685 -0.013037
v 2.02867 -0.880685 -0.018377
v 1.98514 -0.880685 -0.013087
v 2.1053 -0.880685 -0.037267
v 2.17676 -0.880685 -0.069087
v 2.2135 -0.880685 -0.091287
v 2.27368 -0.880685 -0.139007
v 2.34575 -0.880685 -0.231004
v 2.32309 -0.880685 -0.196291
v 2.37754 -0.880685 -0.298101
v 2.39515 -0.880685 -0.369508
v 2.39925 -0.880685 -0.40986
v 2.39635 -0.880685 -0.483044
v 2.37865 -0.880685 -0.554429
v 2.36338 -0.880685 -0.592429
v 2.32636 -0.880685 -0.657204
v 1.91097 -0.880685 -0.844115
v 1.99031 -0.880685 -0.844164
v 2.06825 -0.880685 -0.830488
v 1.86744 -0.880685 -0.838828
v 1.7908 -0.880685 -0.819934
v 1.6826 -0.880685 -0.765917
v 1.71934 -0.880685 -0.788115
v 1.62244 -0.880685 -0.718196
v 1.82785 -0.880685 -0.026717
v 1.78616 -0.880685 -0.039387
v 1.71466 -0.880685 -0.071117
v 1.65086 -0.880685 -0.114647
v 2.27686 -0.880685 -0.714428
v 2.24525 -0.880685 -0.742549
v 2.18146 -0.880685 -0.786086
v 2.10996 -0.880685 -0.817816
v 1.57301 -0.880685 -0.66091
v 1.55034 -0.880685 -0.626197
v 1.51856 -0.880685 -0.5591
v 1.49685 -0.880685 -0.44734
v 1.50095 -0.880685 -0.487693
v 1.49976 -0.880685 -0.374157
v 1.51745 -0.880685 -0.302772
v 1.53272 -0.880685 -0.264772
v 1.56973 -0.880685 -0.199997
v 1.61924 -0.880685 -0.142777
v 1.86504 -0.831335 -0.013077
v 2.0251 -0.831335 -0.012097
v 2.14415 -0.831335 -0.046277
v 2.24823 -0.831335 -0.109607
v 2.34886 -0.831335 -0.224525
v 2.39412 -0.831335 -0.331745
v 2.40539 -0.831335 -0.44635
v 2.37079 -0.831335 -0.590628
v 2.30821 -0.831335 -0.690149
v 2.21817 -0.831335 -0.769726
v 2.0744 -0.831335 -0.83472
v 1.95108 -0.831335 -0.851601
v 1.82755 -0.831335 -0.836228
v 1.68285 -0.831335 -0.772996
v 1.59168 -0.831335 -0.694525
v 1.52767 -0.831335 -0.595778
v 1.49102 -0.831335 -0.451935
v 1.50063 -0.831335 -0.337203
v 1.54435 -0.831335 -0.229439
v 1.64333 -0.831335 -0.113307
v 1.74649 -0.831335 -0.048707
v 2.05642 -0.678355 -0.062127
v 2.12434 -0.678355 -0.084877
v 2.21794 -0.678355 -0.141827
v 2.30839 -0.678355 -0.245114
v 2.34909 -0.678355 -0.341523
v 2.35922 -0.678355 -0.444573
v 2.32812 -0.678355 -0.574256
v 2.27184 -0.678355 -0.663743
v 2.19088 -0.678355 -0.735297
v 2.06166 -0.678355 -0.793715
v 1.95078 -0.678355 -0.808895
v 1.83969 -0.678355 -0.795071
v 1.70965 -0.678355 -0.738236
v 1.62766 -0.678355 -0.667678
v 1.5701 -0.678355 -0.578886
v 1.53716 -0.678355 -0.449595
v 1.5458 -0.678355 -0.34643
v 1.58511 -0.678355 -0.249532
v 1.67408 -0.678355 -0.145147
v 1.76684 -0.678355 -0.087057
v 1.87344 -0.678355 -0.055017
v 2.01731 -0.678355 -0.054137
v 1.84489 -0.903128 -0.376295
v 1.83029 -0.90519 -0.427503
v 1.83913 -0.903052 -0.469488
v 1.87276 -0.905305 -0.512394
v 1.91881 -0.903378 -0.534193
v 1.97616 -0.904869 -0.53372
v 2.02005 -0.903456 -0.515113
v 2.05488 -0.904785 -0.47305
v 2.06605 -0.903362 -0.431621
v 2.05295 -0.904887 -0.380083
v 1.97168 -0.904827 -0.322603
v 1.92952 -0.903026 -0.321448
v 1.8766 -0.905351 -0.341908
v 1.94611 -0.957165 -0.158461
v 2.08068 -0.958037 -0.155812
v 2.08803 -0.958085 -0.155667
v 2.09177 -0.958046 -0.160061
v 2.17565 -0.957165 -0.258774
v 2.26173 -0.958037 -0.354171
v 2.2665 -0.958085 -0.359457
v 2.26506 -0.958044 -0.365067
v 2.23379 -0.957165 -0.486969
v 2.20664 -0.958038 -0.608719
v 2.20517 -0.958085 -0.615314
v 2.19981 -0.958047 -0.617646
v 2.07677 -0.957165 -0.671212
v 1.95684 -0.958037 -0.727467
v 1.95021 -0.958085 -0.730572
v 1.94466 -0.958045 -0.728053
v 1.82282 -0.957165 -0.672763
v 1.70083 -0.958034 -0.62146
v 1.69365 -0.958085 -0.618439
v 1.69205 -0.958037 -0.611727
v 1.66318 -0.957165 -0.490455
v 1.63055 -0.958034 -0.370352
v 1.62865 -0.958085 -0.363353
v 1.63314 -0.958039 -0.35823
v 1.71805 -0.957165 -0.261569
v 1.79935 -0.958034 -0.163218
v 1.80417 -0.958085 -0.157397
v 1.81173 -0.958036 -0.157454
v 2.06581 -0.967665 -0.030227
v 2.03112 -0.934585 -0.005807
v 2.11013 -0.934585 -0.025287
v 2.35889 -0.967665 -0.265209
v 2.35794 -0.934585 -0.224949
v 2.3907 -0.934585 -0.294105
v 1.94508 -0.967665 -0.015207
v 1.90451 -0.934585 -0.000317
v 1.98628 -0.934585 -0.000367
v 2.20724 -0.967665 -0.092037
v 2.22162 -0.934585 -0.080947
v 2.18377 -0.934585 -0.058077
v 2.29633 -0.967665 -0.168717
v 2.28365 -0.934585 -0.130137
v 2.33458 -0.934585 -0.189181
v 2.39471 -0.967665 -0.405809
v 2.41306 -0.934585 -0.409282
v 2.40883 -0.934585 -0.367703
v 2.38531 -0.967665 -0.517921
v 2.41007 -0.934585 -0.484711
v 2.39182 -0.934585 -0.558287
v 2.34258 -0.967665 -0.623226
v 2.37609 -0.934585 -0.597441
v 2.33795 -0.934585 -0.664203
v 2.0292 -0.967665 -0.834686
v 2.07194 -0.934585 -0.842793
v 1.9916 -0.934585 -0.856888
v 1.87273 -0.967665 -0.835642
v 1.86498 -0.934585 -0.85139
v 1.90983 -0.934585 -0.856837
v 2.11491 -0.934585 -0.829736
v 1.75642 -0.967665 -0.802239
v 1.78598 -0.934585 -0.831917
v 1.71233 -0.934585 -0.799121
v 1.6547 -0.967665 -0.740355
v 1.67448 -0.934585 -0.776249
v 1.61246 -0.934585 -0.727063
v 1.5011 -0.967665 -0.411267
v 1.48304 -0.934585 -0.447919
v 1.48603 -0.934585 -0.37249
v 1.82418 -0.934585 -0.014407
v 1.82459 -0.967665 -0.031707
v 1.68406 -0.967665 -0.095227
v 1.64176 -0.934585 -0.105037
v 1.70751 -0.934585 -0.060167
v 1.7812 -0.934585 -0.027467
v 1.60919 -0.934585 -0.134017
v 2.24584 -0.967665 -0.736745
v 2.25434 -0.934585 -0.752159
v 2.28693 -0.934585 -0.723184
v 2.14502 -0.967665 -0.799865
v 2.18859 -0.934585 -0.797032
v 1.55634 -0.967665 -0.628028
v 1.53818 -0.934585 -0.632252
v 1.56153 -0.934585 -0.668019
v 1.51211 -0.967665 -0.523255
v 1.50541 -0.934585 -0.563096
v 1.48727 -0.934585 -0.489497
v 1.53492 -0.967665 -0.270242
v 1.52002 -0.934585 -0.25976
v 1.50428 -0.934585 -0.298914
v 1.59607 -0.967665 -0.172995
v 1.55816 -0.934585 -0.192997
v 2.07395 -0.831485 -0.002757
v 2.11278 -0.779715 -0.018677
v 2.03251 -0.779715 0.001113
v 2.38723 -0.831485 -0.253953
v 2.39796 -0.779715 -0.2919
v 2.36467 -0.779715 -0.221624
v 1.94489 -0.831485 0.013303
v 1.98689 -0.779715 0.006653
v 1.90379 -0.779715 0.006713
v 1.98645 -0.727945 0.001993
v 2.22509 -0.831485 -0.068817
v 2.22611 -0.779715 -0.075267
v 2.18761 -0.779715 -0.051997
v 2.11101 -0.727945 -0.023067
v 2.0316 -0.727945 -0.003497
v 2.06125 -0.671665 -0.045757
v 2.18504 -0.727945 -0.056037
v 2.22315 -0.727945 -0.079057
v 2.32035 -0.831485 -0.150797
v 2.34091 -0.779715 -0.185245
v 2.28915 -0.779715 -0.125247
v 2.3367 -0.727945 -0.187851
v 2.28549 -0.727945 -0.128497
v 2.19711 -0.671665 -0.105127
v 2.28276 -0.671665 -0.17884
v 2.3602 -0.727945 -0.223849
v 2.39312 -0.727945 -0.293366
v 2.42551 -0.831485 -0.404223
v 2.42069 -0.779715 -0.40898
v 2.41639 -0.779715 -0.36669
v 2.3429 -0.671665 -0.271599
v 2.41136 -0.727945 -0.367349
v 2.41561 -0.727945 -0.409196
v 2.41548 -0.831485 -0.524082
v 2.3991 -0.779715 -0.560398
v 2.41766 -0.779715 -0.485631
v 2.3773 -0.671665 -0.406668
v 2.41261 -0.727945 -0.485019
v 2.39427 -0.727945 -0.558979
v 2.36828 -0.671665 -0.514442
v 2.36979 -0.831485 -0.636661
v 2.34434 -0.779715 -0.668066
v 2.3831 -0.779715 -0.600222
v 2.37844 -0.727945 -0.598386
v 2.34009 -0.727945 -0.665497
v 2.32721 -0.671665 -0.61567
v 2.2664 -0.831485 -0.757987
v 2.25935 -0.779715 -0.757472
v 2.2925 -0.779715 -0.728002
v 2.28879 -0.727945 -0.724786
v 2.25601 -0.727945 -0.753948
v 2.03479 -0.831485 -0.862695
v 1.99231 -0.779715 -0.863909
v 2.07395 -0.779715 -0.849585
v 2.15861 -0.831485 -0.825472
v 2.11766 -0.779715 -0.836305
v 2.19254 -0.779715 -0.803072
v 2.11583 -0.727945 -0.831929
v 2.18992 -0.727945 -0.799055
v 2.23426 -0.671665 -0.724723
v 2.13735 -0.671665 -0.785404
v 2.07259 -0.727945 -0.84507
v 1.99184 -0.727945 -0.85924
v 1.86756 -0.831485 -0.863716
v 1.8636 -0.779715 -0.858317
v 1.90922 -0.779715 -0.863857
v 2.02601 -0.671665 -0.818873
v 1.90965 -0.727945 -0.859189
v 1.86451 -0.727945 -0.853706
v 2.02268 -0.678355 -0.80218
v 1.74319 -0.831485 -0.828009
v 1.70848 -0.779715 -0.805202
v 1.78332 -0.779715 -0.838528
v 1.87569 -0.671665 -0.819791
v 1.78509 -0.727945 -0.834131
v 1.71106 -0.727945 -0.801165
v 1.76389 -0.671665 -0.787686
v 1.63446 -0.831485 -0.761847
v 1.60695 -0.779715 -0.731956
v 1.66998 -0.779715 -0.781938
v 1.67296 -0.727945 -0.778145
v 1.61061 -0.727945 -0.728702
v 1.66611 -0.671665 -0.728193
v 1.52933 -0.831485 -0.641794
v 1.53144 -0.779715 -0.635577
v 1.55519 -0.779715 -0.671956
v 1.55942 -0.727945 -0.66935
v 1.53592 -0.727945 -0.633352
v 1.48205 -0.831485 -0.529784
v 1.47971 -0.779715 -0.49051
v 1.49816 -0.779715 -0.565301
v 1.50297 -0.727945 -0.563834
v 1.48474 -0.727945 -0.489851
v 1.52909 -0.671665 -0.519568
v 1.47029 -0.831485 -0.410058
v 1.47845 -0.779715 -0.37157
v 1.47542 -0.779715 -0.448221
v 1.48048 -0.727945 -0.448005
v 1.48349 -0.727945 -0.372182
v 1.51853 -0.671665 -0.411913
v 1.50642 -0.831485 -0.259333
v 1.51301 -0.779715 -0.256979
v 1.49699 -0.779715 -0.296803
v 1.50183 -0.727945 -0.298222
v 1.51767 -0.727945 -0.258815
v 1.57181 -0.831485 -0.155367
v 1.60361 -0.779715 -0.129197
v 1.55177 -0.779715 -0.189135
v 1.55099 -0.671665 -0.276436
v 1.55602 -0.727945 -0.191704
v 1.60731 -0.727945 -0.132417
v 1.60979 -0.671665 -0.18295
v 1.66587 -0.831485 -0.072227
v 1.70356 -0.779715 -0.054127
v 1.63676 -0.779715 -0.099727
v 1.64009 -0.727945 -0.103257
v 1.70619 -0.727945 -0.058147
v 1.69437 -0.671665 -0.108197
v 1.81606 -0.831485 -0.004337
v 1.82216 -0.779715 -0.007617
v 1.77845 -0.779715 -0.020897
v 1.82352 -0.727945 -0.012127
v 1.90427 -0.727945 0.002043
v 1.78027 -0.727945 -0.025267
v 1.82937 -0.671665 -0.047167
v 1.9452 -0.671665 -0.031307
v 1.94762 -0.948385 -0.369504
v 1.97845 -0.948385 -0.369316
v 1.9168 -0.948385 -0.369693
v 1.99784 -0.948385 -0.391449
v 2.01722 -0.948385 -0.413582
v 2.01056 -0.948385 -0.441369
v 2.0039 -0.948385 -0.469157
v 1.97621 -0.948385 -0.481674
v 1.94853 -0.948385 -0.494192
v 1.92066 -0.948385 -0.482013
v 1.8928 -0.948385 -0.469835
v 1.89773 -0.948385 -0.39206
v 1.87868 -0.948385 -0.414428
v 1.88573 -0.948385 -0.442132
v 2.03081 -0.957165 -0.174305
v 2.03528 -0.957743 -0.162793
v 2.0369 -0.953501 -0.158182
v 2.03624 -0.951478 -0.158911
v 2.03351 -0.94219 -0.162252
v 1.94619 -0.931815 -0.169858
v 2.03084 -0.933427 -0.165655
v 2.07249 -0.937823 -0.160514
v 2.07875 -0.933598 -0.164534
v 2.0789 -0.933554 -0.164606
v 2.08354 -0.933615 -0.164422
v 2.08232 -0.958048 -0.156438
v 2.08675 -0.957959 -0.15817
v 2.08585 -0.933565 -0.167259
v 2.12043 -0.958707 -0.170796
v 2.16604 -0.931815 -0.265938
v 2.22351 -0.933433 -0.325649
v 2.22791 -0.9419 -0.325472
v 2.23277 -0.951809 -0.325374
v 2.23377 -0.953763 -0.325403
v 2.22896 -0.957755 -0.327031
v 2.21612 -0.957165 -0.331012
v 2.10986 -0.957165 -0.201304
v 2.10695 -0.957165 -0.206355
v 2.11467 -0.949117 -0.193312
v 2.11478 -0.949851 -0.192909
v 2.12527 -0.960078 -0.174531
v 2.12507 -0.959619 -0.174978
v 2.11453 -0.947613 -0.194015
v 2.25274 -0.93739 -0.351964
v 2.25312 -0.933597 -0.358199
v 2.25315 -0.933552 -0.35835
v 2.25628 -0.933615 -0.361675
v 2.26221 -0.958047 -0.355759
v 2.26351 -0.957956 -0.360106
v 2.25527 -0.933562 -0.365272
v 2.27277 -0.957354 -0.391233
v 2.22174 -0.931815 -0.484507
v 2.20756 -0.933411 -0.560549
v 2.21064 -0.942372 -0.563757
v 2.21344 -0.951262 -0.56681
v 2.21408 -0.953331 -0.567586
v 2.20948 -0.957734 -0.56507
v 2.19846 -0.957165 -0.558629
v 2.24131 -0.957165 -0.405234
v 2.23498 -0.957165 -0.406287
v 2.2506 -0.948758 -0.403853
v 2.25102 -0.949496 -0.403684
v 2.27261 -0.959474 -0.400007
v 2.27187 -0.958799 -0.400193
v 2.24989 -0.947188 -0.4042
v 2.20389 -0.938111 -0.599919
v 2.19782 -0.933579 -0.605075
v 2.19772 -0.933536 -0.605187
v 2.1969 -0.933595 -0.609313
v 2.20562 -0.958048 -0.610058
v 2.20284 -0.957961 -0.613628
v 2.19351 -0.933547 -0.610704
v 2.18187 -0.959604 -0.642053
v 2.07134 -0.931815 -0.660976
v 1.996 -0.933419 -0.699151
v 1.99521 -0.941982 -0.703197
v 1.99426 -0.951693 -0.7075
v 1.99401 -0.953671 -0.708405
v 1.99334 -0.957751 -0.703682
v 1.99198 -0.957165 -0.691329
v 2.15306 -0.957165 -0.624214
v 2.14847 -0.957165 -0.620577
v 2.1607 -0.949357 -0.630485
v 2.16111 -0.950094 -0.630675
v 2.17853 -0.960495 -0.644379
v 2.17824 -0.960185 -0.644188
v 2.16001 -0.947902 -0.630212
v 1.96143 -0.937531 -0.719897
v 1.95445 -0.933578 -0.718827
v 1.95429 -0.933534 -0.718819
v 1.95015 -0.933595 -0.720866
v 1.95505 -0.958048 -0.727556
v 1.9502 -0.957957 -0.727757
v 1.94665 -0.933544 -0.719194
v 1.91482 -0.957794 -0.729394
v 1.8281 -0.931815 -0.662462
v 1.73838 -0.933472 -0.627565
v 1.73522 -0.940117 -0.629028
v 1.72897 -0.953935 -0.631772
v 1.72825 -0.955425 -0.632048
v 1.73134 -0.957831 -0.629337
v 1.74282 -0.957165 -0.619695
v 1.908 -0.957165 -0.697871
v 1.90828 -0.957165 -0.692009
v 1.9074 -0.948874 -0.706691
v 1.90749 -0.949611 -0.707099
v 1.9066 -0.959667 -0.727511
v 1.90657 -0.95906 -0.726873
v 1.90719 -0.947325 -0.705982
v 1.70743 -0.934696 -0.615879
v 1.70663 -0.933596 -0.614355
v 1.70654 -0.933548 -0.614226
v 1.70181 -0.933615 -0.612349
v 1.69967 -0.958044 -0.620181
v 1.69634 -0.95794 -0.61643
v 1.70085 -0.93355 -0.607883
v 1.68326 -0.948298 -0.596602
v 1.67519 -0.931815 -0.487845
v 1.64952 -0.933462 -0.403888
v 1.64608 -0.940586 -0.402452
v 1.64035 -0.953353 -0.399917
v 1.63961 -0.954972 -0.399546
v 1.64406 -0.957811 -0.400072
v 1.65888 -0.957165 -0.402143
v 1.69116 -0.957165 -0.558229
v 1.69763 -0.957165 -0.554202
v 1.68559 -0.94662 -0.561442
v 1.68523 -0.947523 -0.561815
v 1.66959 -0.956117 -0.571629
v 1.67117 -0.954304 -0.570444
v 1.68614 -0.944838 -0.560791
v 1.6389 -0.935415 -0.372714
v 1.64019 -0.933596 -0.37012
v 1.64024 -0.933548 -0.369973
v 1.6389 -0.933615 -0.365447
v 1.63089 -0.958045 -0.36871
v 1.63194 -0.957944 -0.364026
v 1.64194 -0.933553 -0.362131
v 1.64003 -0.950821 -0.339311
v 1.72776 -0.931815 -0.268616
v 1.78525 -0.933476 -0.1948
v 1.78444 -0.939933 -0.191712
v 1.7829 -0.954182 -0.18526
v 1.78278 -0.955619 -0.184573
v 1.78489 -0.957839 -0.187908
v 1.79258 -0.957165 -0.200574
v 1.67673 -0.957165 -0.326143
v 1.68386 -0.957165 -0.328148
v 1.66982 -0.947172 -0.323998
v 1.66931 -0.948015 -0.323975
v 1.65048 -0.956948 -0.318759
v 1.65218 -0.955406 -0.319086
v 1.6707 -0.945422 -0.323983
v 1.80427 -0.934418 -0.170272
v 1.8056 -0.933596 -0.169991
v 1.80575 -0.933548 -0.169939
v 1.80879 -0.933615 -0.166101
v 1.80096 -0.958044 -0.162463
v 1.8057 -0.957939 -0.160299
v 1.81378 -0.93355 -0.166238
v 1.82863 -0.947267 -0.153848
v 1.86934 -0.957165 -0.168426
v 1.87217 -0.957165 -0.175274
v 1.86731 -0.946406 -0.162937
v 1.86699 -0.947335 -0.162518
v 1.86027 -0.955798 -0.146485
v 1.86121 -0.953882 -0.148261
v 1.86788 -0.944614 -0.163579
v 1.94521 -0.961685 -0.032897
v 2.06077 -0.961685 -0.047267
v 1.82988 -0.961685 -0.048677
v 2.1366 -0.961685 -0.783985
v 2.02572 -0.961685 -0.817316
v 1.87595 -0.961685 -0.818231
v 1.76461 -0.961685 -0.786257
v 1.69536 -0.961685 -0.109487
v 2.02757 -0.930025 -0.023897
v 2.1032 -0.930025 -0.042537
v 2.34041 -0.930025 -0.23366
v 2.3413 -0.961685 -0.272198
v 2.37176 -0.930025 -0.299858
v 1.90636 -0.930025 -0.018637
v 1.82947 -0.930025 -0.032127
v 1.98464 -0.930025 -0.018677
v 2.17369 -0.930025 -0.073927
v 2.19615 -0.961685 -0.106427
v 2.20992 -0.930025 -0.095817
v 2.26928 -0.930025 -0.142907
v 2.28144 -0.961685 -0.179833
v 2.31804 -0.930025 -0.199422
v 2.38912 -0.930025 -0.370308
v 2.3756 -0.961685 -0.406783
v 2.39318 -0.930025 -0.410108
v 2.39031 -0.930025 -0.482311
v 2.3666 -0.961685 -0.514101
v 2.32572 -0.961685 -0.614901
v 2.35778 -0.930025 -0.590219
v 2.37284 -0.930025 -0.55274
v 2.32127 -0.930025 -0.654126
v 2.06664 -0.930025 -0.825076
v 1.98973 -0.930025 -0.838568
v 1.91146 -0.930025 -0.83852
v 1.86854 -0.930025 -0.833306
v 2.10776 -0.930025 -0.812578
v 1.79292 -0.930025 -0.814665
v 1.68619 -0.930025 -0.761379
v 1.66726 -0.961685 -0.72702
v 1.72242 -0.930025 -0.783273
v 1.62681 -0.930025 -0.714297
v 1.50294 -0.930025 -0.447093
v 1.52022 -0.961695 -0.412008
v 1.5058 -0.930025 -0.37489
v 1.65486 -0.930025 -0.118877
v 1.7178 -0.930025 -0.075927
v 1.78833 -0.930025 -0.044627
v 1.62368 -0.930025 -0.146617
v 2.27244 -0.930025 -0.710584
v 2.2331 -0.961685 -0.723564
v 2.24125 -0.930025 -0.738319
v 2.1783 -0.930025 -0.781273
v 1.57806 -0.930025 -0.657778
v 1.57309 -0.961685 -0.619498
v 1.5557 -0.930025 -0.623541
v 1.52434 -0.930025 -0.557343
v 1.53076 -0.961685 -0.519206
v 1.50697 -0.930025 -0.486893
v 1.52326 -0.930025 -0.304461
v 1.55258 -0.961685 -0.277015
v 1.53831 -0.930025 -0.266982
v 1.57483 -0.930025 -0.203075
v 1.61114 -0.961685 -0.183928
v 1.94503 -0.831335 -0.005597
v 2.06856 -0.831335 -0.020977
v 2.21325 -0.831335 -0.084207
v 2.30443 -0.831335 -0.162675
v 2.36844 -0.831335 -0.261423
v 2.40508 -0.831335 -0.405266
v 2.39548 -0.831335 -0.519998
v 2.35175 -0.831335 -0.627761
v 1.8217 -0.831335 -0.022477
v 2.25277 -0.831335 -0.743898
v 2.1496 -0.831335 -0.808496
v 2.03107 -0.831335 -0.844127
v 1.87099 -0.831335 -0.845105
v 1.75196 -0.831335 -0.810925
v 1.64787 -0.831335 -0.747593
v 1.54724 -0.831335 -0.632675
v 1.50197 -0.831335 -0.525456
v 1.49072 -0.831335 -0.410851
v 1.52531 -0.831335 -0.266573
v 1.5879 -0.831335 -0.167052
v 1.67794 -0.831335 -0.087477
v 2.02889 -0.781785 -0.017267
v 2.34684 -0.781785 -0.230477
v 1.90569 -0.781785 -0.011907
v 1.98522 -0.781785 -0.011957
v 2.02803 -0.732225 -0.021677
v 1.98481 -0.732225 -0.016427
v 2.17738 -0.781785 -0.068107
v 2.10574 -0.781785 -0.036207
v 2.17491 -0.732225 -0.071967
v 2.10404 -0.732225 -0.040417
v 2.18647 -0.678355 -0.118967
v 2.21423 -0.781785 -0.090377
v 2.27455 -0.781785 -0.138217
v 2.3241 -0.781785 -0.195654
v 2.34256 -0.732225 -0.232607
v 2.27105 -0.732225 -0.141337
v 2.21137 -0.732225 -0.094007
v 2.32006 -0.732225 -0.198149
v 2.26845 -0.678355 -0.189523
v 2.326 -0.678355 -0.278315
v 2.37871 -0.781785 -0.297747
v 2.39635 -0.781785 -0.369338
v 2.39154 -0.732225 -0.369969
v 2.37408 -0.732225 -0.299151
v 2.35895 -0.678355 -0.407606
v 2.40048 -0.781785 -0.409819
v 2.39756 -0.781785 -0.483191
v 2.39275 -0.732225 -0.482606
v 2.39561 -0.732225 -0.410026
v 2.3503 -0.678355 -0.510771
v 2.37981 -0.781785 -0.554761
v 2.3645 -0.781785 -0.592881
v 2.37519 -0.732225 -0.553402
v 2.36002 -0.732225 -0.591123
v 2.31099 -0.678355 -0.607668
v 2.3274 -0.781785 -0.657823
v 2.27775 -0.781785 -0.715195
v 2.27423 -0.732225 -0.712117
v 2.32332 -0.732225 -0.655364
v 2.22202 -0.678355 -0.712057
v 2.24603 -0.781785 -0.743405
v 2.18208 -0.781785 -0.787054
v 2.06856 -0.781785 -0.831578
v 2.1104 -0.781785 -0.818866
v 2.06726 -0.732225 -0.827257
v 2.17957 -0.732225 -0.783209
v 2.24283 -0.732225 -0.740031
v 2.10867 -0.732225 -0.814678
v 2.12925 -0.678355 -0.770143
v 1.99043 -0.781785 -0.845289
v 1.91089 -0.781785 -0.84524
v 1.91129 -0.732225 -0.840771
v 1.98996 -0.732225 -0.84082
v 1.8788 -0.678355 -0.803059
v 1.86721 -0.781785 -0.839936
v 1.79038 -0.781785 -0.820994
v 1.79206 -0.732225 -0.816785
v 1.86807 -0.732225 -0.835523
v 1.77176 -0.678355 -0.772326
v 1.71873 -0.781785 -0.789093
v 1.68189 -0.781785 -0.766825
v 1.68473 -0.732225 -0.763193
v 1.72119 -0.732225 -0.785229
v 1.67818 -0.678355 -0.715378
v 1.62155 -0.781785 -0.71898
v 1.57201 -0.781785 -0.661547
v 1.57604 -0.732225 -0.659052
v 1.62506 -0.732225 -0.715866
v 1.58771 -0.678355 -0.612086
v 1.54927 -0.781785 -0.626723
v 1.5174 -0.781785 -0.559453
v 1.52202 -0.732225 -0.55805
v 1.55355 -0.732225 -0.624594
v 1.54702 -0.678355 -0.515677
v 1.49974 -0.781785 -0.487862
v 1.49564 -0.781785 -0.447381
v 1.50456 -0.732225 -0.487232
v 1.50048 -0.732225 -0.447175
v 1.5369 -0.678355 -0.412627
v 1.49854 -0.781785 -0.374009
v 1.5163 -0.781785 -0.30244
v 1.52093 -0.732225 -0.303798
v 1.50336 -0.732225 -0.374595
v 1.56798 -0.678355 -0.282945
v 1.5316 -0.781785 -0.26432
v 1.56871 -0.781785 -0.199378
v 1.57279 -0.732225 -0.201837
v 1.53607 -0.732225 -0.266077
v 1.62426 -0.678355 -0.193457
v 1.61834 -0.781785 -0.142007
v 1.65006 -0.781785 -0.113797
v 1.65327 -0.732225 -0.117167
v 1.62189 -0.732225 -0.145087
v 1.70522 -0.678355 -0.121907
v 1.71403 -0.781785 -0.070147
v 1.7857 -0.781785 -0.038337
v 1.71654 -0.732225 -0.073987
v 1.78744 -0.732225 -0.042527
v 1.83444 -0.678355 -0.063487
v 1.82755 -0.781785 -0.025627
v 1.90614 -0.732225 -0.016377
v 1.82884 -0.732225 -0.029947
v 1.94532 -0.678355 -0.048307
v 1.84189 -0.897016 -0.372068
v 1.82293 -0.875127 -0.366541
v 1.73003 -0.919206 -0.340799
v 1.81696 -0.866558 -0.362662
v 1.75313 -0.900974 -0.345782
v 1.76113 -0.894685 -0.347474
v 1.82549 -0.856265 -0.339594
v 1.83039 -0.909052 -0.400829
v 1.82842 -0.909857 -0.404162
v 1.82983 -0.906338 -0.421764
v 1.68242 -0.938547 -0.405988
v 1.81469 -0.887797 -0.425895
v 1.69732 -0.926954 -0.409377
v 1.80549 -0.876836 -0.427335
v 1.7239 -0.906224 -0.415106
v 1.76068 -0.877527 -0.423037
v 1.79562 -0.865273 -0.428222
v 1.79626 -0.856265 -0.46156
v 1.73787 -0.918597 -0.528779
v 1.75667 -0.900248 -0.51532
v 1.76085 -0.896164 -0.512302
v 1.81009 -0.866475 -0.48088
v 1.81711 -0.875052 -0.479049
v 1.83354 -0.896773 -0.469058
v 1.83366 -0.896944 -0.468979
v 1.83947 -0.903224 -0.470252
v 1.85072 -0.908835 -0.495162
v 1.85277 -0.909858 -0.499703
v 1.86849 -0.906279 -0.509681
v 1.76037 -0.939143 -0.605663
v 1.86152 -0.887887 -0.522602
v 1.7724 -0.9278 -0.597259
v 1.85693 -0.876943 -0.530097
v 1.79183 -0.909203 -0.583351
v 1.8246 -0.877824 -0.559884
v 1.85144 -0.865364 -0.537748
v 1.88132 -0.856265 -0.558707
v 1.91 -0.921215 -0.649462
v 1.90953 -0.903424 -0.62783
v 1.90911 -0.890315 -0.61186
v 1.91147 -0.866839 -0.562703
v 1.91405 -0.875375 -0.556419
v 1.91513 -0.897263 -0.537894
v 1.94848 -0.909735 -0.54164
v 1.94886 -0.909818 -0.541737
v 1.96719 -0.906494 -0.536353
v 1.99002 -0.936866 -0.667609
v 1.97834 -0.887543 -0.547873
v 1.98989 -0.924595 -0.652794
v 1.98215 -0.876533 -0.555766
v 1.98918 -0.897895 -0.620755
v 1.98861 -0.876701 -0.595322
v 1.98551 -0.865018 -0.564308
v 2.01665 -0.856265 -0.55788
v 2.11378 -0.921836 -0.593442
v 2.09516 -0.904197 -0.58048
v 2.07916 -0.889125 -0.569442
v 2.03985 -0.866928 -0.538072
v 2.03609 -0.875453 -0.532326
v 2.02092 -0.89734 -0.520061
v 2.04439 -0.9098 -0.498564
v 2.04459 -0.909707 -0.498087
v 2.05123 -0.906531 -0.481934
v 2.17664 -0.936427 -0.545152
v 2.06823 -0.887476 -0.480187
v 2.16382 -0.923989 -0.535997
v 2.07732 -0.876455 -0.482291
v 2.13456 -0.89573 -0.515658
v 2.11465 -0.876497 -0.501816
v 2.08666 -0.864955 -0.485118
v 2.10031 -0.856265 -0.459703
v 2.1895 -0.92107 -0.41416
v 2.16671 -0.903238 -0.419369
v 2.15055 -0.890604 -0.423129
v 2.09057 -0.875358 -0.431006
v 2.09778 -0.866818 -0.431938
v 2.07077 -0.897247 -0.434116
v 2.06733 -0.909686 -0.403297
v 2.06736 -0.909821 -0.402696
v 2.05761 -0.906483 -0.387396
v 2.19161 -0.936984 -0.337973
v 2.06743 -0.887559 -0.374998
v 2.17603 -0.924758 -0.341351
v 2.07492 -0.876554 -0.369821
v 2.14277 -0.898423 -0.348968
v 2.1154 -0.876754 -0.355236
v 2.08321 -0.865034 -0.364905
v 2.06932 -0.856265 -0.338105
v 2.08571 -0.921525 -0.243811
v 2.07606 -0.903809 -0.263472
v 2.06845 -0.889715 -0.279176
v 2.04364 -0.866883 -0.322025
v 2.03839 -0.875414 -0.326672
v 2.02876 -0.897301 -0.34299
v 2.0005 -0.90981 -0.326337
v 2.0004 -0.909791 -0.326323
v 1.98143 -0.906513 -0.323866
v 2.02143 -0.936647 -0.196698
v 1.97631 -0.88751 -0.308988
v 2.0146 -0.924292 -0.210188
v 1.97655 -0.876494 -0.300343
v 1.99989 -0.896798 -0.240207
v 1.98908 -0.87659 -0.26227
v 1.97749 -0.864984 -0.291306
v 1.94703 -0.856265 -0.284652
v 1.88999 -0.918367 -0.217398
v 1.89997 -0.899973 -0.23736
v 1.90174 -0.896745 -0.240863
v 1.92407 -0.866443 -0.292777
v 1.92441 -0.875026 -0.29951
v 1.93105 -0.896156 -0.316048
v 1.93129 -0.89692 -0.316646
v 1.9282 -0.903281 -0.321656
v 1.89988 -0.908756 -0.326124
v 1.89416 -0.909861 -0.327026
v 1.88012 -0.906255 -0.338927
v 1.80328 -0.939399 -0.219292
v 1.86836 -0.887925 -0.329472
v 1.80939 -0.928162 -0.231908
v 1.86149 -0.876988 -0.323654
v 1.81924 -0.910397 -0.251628
v 1.85464 -0.865398 -0.316978
v 1.83723 -0.877939 -0.287659
v 1.9821 -0.906895 -0.40319
v 1.99536 -0.906895 -0.418328
v 1.99081 -0.906895 -0.437334
v 1.96884 -0.906895 -0.388052
v 1.94777 -0.906895 -0.38818
v 1.92668 -0.906895 -0.388309
v 1.91364 -0.906895 -0.403608
v 1.98626 -0.906895 -0.45634
v 1.96731 -0.906895 -0.464901
v 1.94837 -0.906895 -0.473463
v 1.92931 -0.906895 -0.465133
v 1.90059 -0.906895 -0.418907
v 1.90543 -0.906895 -0.437855
v 1.91026 -0.906895 -0.456804
v 2.07361 -0.862613 -0.539817
v 2.06744 -0.85863 -0.53285
v 2.08408 -0.856265 -0.527389
v 2.08268 -0.865627 -0.53937
v 2.08055 -0.861031 -0.524823
v 2.08111 -0.860813 -0.523276
v 2.11963 -0.862163 -0.40882
v 2.11058 -0.858469 -0.408847
v 2.11653 -0.856265 -0.392017
v 2.12592 -0.865738 -0.4006
v 2.11214 -0.861053 -0.392972
v 2.11118 -0.86083 -0.391597
v 1.93103 -0.862242 -0.587631
v 1.93303 -0.858497 -0.579367
v 1.94919 -0.856265 -0.588371
v 1.93807 -0.865713 -0.594888
v 1.94917 -0.861047 -0.584207
v 1.95083 -0.860826 -0.583648
v 1.80308 -0.860626 -0.509108
v 1.80917 -0.857908 -0.506615
v 1.81344 -0.856265 -0.529042
v 1.80053 -0.866062 -0.524932
v 1.81699 -0.861095 -0.526398
v 1.8185 -0.860854 -0.527266
v 1.89591 -0.860478 -0.280377
v 1.89713 -0.857854 -0.286203
v 1.87193 -0.856265 -0.28511
v 1.87916 -0.866087 -0.274374
v 1.87393 -0.861095 -0.288888
v 1.87268 -0.860852 -0.290049
v 1.78813 -0.861005 -0.375091
v 1.79458 -0.858047 -0.378124
v 1.77906 -0.856265 -0.394079
v 1.77452 -0.865986 -0.382288
v 1.7835 -0.861089 -0.394987
v 1.78371 -0.860853 -0.396615
v 2.03786 -0.862431 -0.291493
v 2.03202 -0.858565 -0.298374
v 2.02211 -0.856265 -0.284193
v 2.03515 -0.865673 -0.282782
v 2.02019 -0.86104 -0.287951
v 2.01843 -0.86082 -0.28779
# </points>

# <edges count="1210">
l 178 332
l 1 179
l 333 334
l 335 334
l 1 180
l 2 181
l 3 2
l 1 3
l 4 182
l 336 183
l 336 184
l 337 338
l 339 338
l 4 185
l 5 186
l 6 5
l 4 6
l 7 187
l 340 188
l 340 189
l 341 342
l 343 342
l 7 190
l 8 191
l 9 8
l 7 9
l 10 192
l 344 193
l 344 194
l 345 346
l 347 346
l 10 195
l 11 196
l 12 11
l 10 12
l 13 197
l 348 198
l 348 199
l 349 350
l 351 350
l 13 200
l 14 201
l 15 14
l 13 15
l 16 202
l 352 203
l 352 204
l 353 354
l 355 354
l 16 205
l 17 206
l 18 17
l 16 18
l 19 207
l 356 208
l 356 209
l 357 358
l 359 358
l 19 210
l 20 211
l 21 20
l 19 21
l 332 212
l 214 22
l 215 23
l 23 360
l 361 360
l 23 362
l 362 24
l 216 25
l 217 26
l 218 27
l 27 363
l 364 363
l 27 365
l 365 28
l 219 29
l 220 30
l 224 31
l 225 32
l 22 366
l 367 366
l 22 368
l 368 33
l 34 367
l 33 34
l 35 361
l 24 35
l 34 234
l 33 236
l 35 235
l 24 237
l 25 369
l 25 370
l 371 369
l 370 36
l 37 371
l 36 37
l 239 36
l 37 238
l 26 372
l 373 372
l 26 374
l 374 38
l 39 373
l 38 39
l 40 364
l 28 40
l 39 240
l 38 242
l 40 241
l 28 243
l 29 375
l 29 376
l 377 375
l 376 41
l 42 377
l 41 42
l 245 41
l 42 244
l 30 378
l 379 378
l 30 380
l 221 43
l 43 381
l 380 44
l 382 381
l 43 383
l 45 379
l 44 45
l 383 46
l 45 246
l 44 247
l 47 382
l 46 47
l 47 248
l 46 249
l 222 48
l 223 49
l 31 384
l 385 384
l 386 31
l 386 50
l 32 387
l 32 388
l 389 387
l 388 51
l 52 389
l 51 52
l 251 50
l 53 385
l 50 53
l 390 49
l 53 252
l 253 51
l 52 250
l 226 54
l 54 391
l 392 391
l 54 393
l 227 55
l 55 394
l 395 394
l 396 55
l 393 56
l 396 57
l 58 392
l 56 58
l 59 395
l 57 59
l 58 254
l 56 256
l 257 57
l 59 255
l 228 60
l 229 61
l 230 62
l 62 397
l 398 397
l 62 399
l 399 63
l 231 64
l 232 65
l 213 66
l 400 66
l 401 66
l 233 67
l 67 402
l 403 402
l 404 67
l 405 401
l 400 68
l 404 69
l 258 68
l 70 405
l 68 70
l 70 259
l 260 69
l 71 403
l 69 71
l 406 65
l 71 261
l 48 407
l 48 408
l 409 407
l 408 72
l 73 409
l 72 73
l 73 262
l 72 263
l 49 410
l 411 410
l 390 74
l 75 411
l 74 75
l 265 74
l 75 264
l 60 412
l 60 413
l 414 412
l 413 76
l 77 414
l 76 77
l 77 266
l 76 267
l 61 415
l 416 415
l 61 417
l 417 78
l 79 416
l 78 79
l 80 398
l 63 80
l 79 268
l 78 270
l 80 269
l 63 271
l 64 418
l 64 419
l 420 418
l 419 81
l 82 420
l 81 82
l 273 81
l 82 272
l 65 421
l 422 421
l 406 83
l 84 422
l 83 84
l 275 83
l 84 274
l 277 85
l 278 86
l 86 423
l 86 424
l 423 425
l 279 87
l 280 88
l 281 89
l 89 426
l 89 427
l 426 428
l 282 90
l 283 91
l 287 92
l 288 93
l 85 429
l 85 430
l 431 429
l 430 432
l 87 433
l 87 434
l 435 433
l 424 436
l 425 437
l 438 437
l 94 436
l 94 438
l 298 94
l 435 439
l 434 440
l 88 441
l 88 442
l 443 441
l 442 444
l 440 95
l 445 443
l 299 95
l 446 439
l 95 446
l 447 445
l 444 96
l 96 447
l 96 300
l 428 448
l 427 449
l 90 450
l 90 451
l 452 450
l 453 448
l 97 449
l 97 453
l 301 97
l 452 454
l 451 455
l 91 456
l 91 457
l 458 456
l 455 98
l 302 98
l 459 454
l 98 459
l 458 460
l 457 461
l 462 460
l 461 99
l 99 462
l 99 303
l 284 100
l 100 463
l 100 464
l 463 465
l 465 466
l 464 467
l 468 466
l 285 101
l 101 469
l 101 470
l 471 469
l 102 467
l 102 468
l 102 304
l 471 472
l 470 473
l 92 474
l 92 475
l 476 474
l 286 103
l 103 477
l 103 478
l 479 477
l 478 480
l 473 104
l 481 479
l 482 472
l 104 482
l 305 104
l 483 481
l 480 105
l 105 483
l 105 306
l 476 484
l 475 485
l 93 486
l 93 487
l 488 486
l 489 484
l 106 485
l 106 489
l 307 106
l 488 490
l 487 491
l 492 306
l 289 107
l 107 493
l 107 494
l 493 495
l 491 108
l 496 490
l 108 496
l 308 108
l 495 497
l 494 498
l 499 497
l 290 109
l 109 500
l 109 501
l 500 502
l 498 110
l 110 499
l 110 309
l 502 503
l 501 504
l 505 503
l 291 111
l 111 506
l 111 507
l 508 506
l 112 504
l 112 505
l 112 310
l 508 509
l 507 510
l 292 113
l 113 511
l 113 512
l 513 511
l 510 114
l 115 509
l 114 115
l 311 114
l 513 514
l 512 515
l 516 514
l 515 116
l 116 516
l 116 312
l 293 117
l 117 517
l 117 518
l 517 519
l 519 520
l 518 521
l 522 520
l 294 118
l 118 523
l 118 524
l 525 523
l 119 521
l 119 522
l 119 313
l 525 526
l 524 527
l 295 120
l 120 528
l 120 529
l 530 528
l 527 121
l 531 526
l 121 531
l 314 121
l 530 532
l 529 533
l 534 532
l 296 122
l 122 535
l 122 536
l 535 537
l 533 123
l 123 534
l 123 315
l 537 538
l 536 539
l 540 538
l 539 124
l 124 540
l 124 316
l 276 125
l 125 541
l 542 125
l 541 543
l 544 542
l 545 431
l 543 546
l 126 544
l 317 126
l 126 547
l 547 546
l 548 545
l 432 127
l 127 548
l 318 127
l 297 318
l 17 319
l 18 320
l 14 321
l 15 322
l 11 323
l 12 324
l 8 325
l 9 326
l 5 327
l 6 328
l 3 329
l 20 330
l 21 331
l 549 550
l 551 549
l 550 552
l 552 553
l 553 554
l 554 555
l 555 556
l 556 557
l 557 558
l 558 559
l 560 551
l 561 560
l 562 561
l 559 562
l 563 564
l 564 178
l 178 565
l 565 566
l 566 567
l 567 128
l 128 568
l 179 569
l 569 128
l 179 570
l 570 571
l 571 572
l 572 573
l 333 574
l 574 575
l 575 335
l 576 573
l 577 576
l 180 577
l 181 180
l 578 129
l 129 579
l 580 129
l 182 579
l 580 581
l 581 582
l 183 582
l 583 183
l 584 583
l 585 586
l 184 585
l 587 588
l 588 184
l 181 589
l 589 590
l 130 578
l 590 130
l 587 591
l 130 591
l 182 592
l 592 593
l 593 594
l 594 595
l 337 596
l 596 597
l 597 339
l 598 595
l 599 598
l 185 599
l 186 185
l 600 131
l 131 601
l 602 131
l 187 601
l 602 603
l 603 604
l 188 604
l 605 188
l 606 605
l 607 608
l 189 607
l 609 610
l 610 189
l 186 611
l 611 612
l 132 600
l 612 132
l 609 613
l 132 613
l 187 614
l 614 615
l 615 616
l 616 617
l 341 618
l 618 619
l 619 343
l 620 617
l 621 620
l 190 621
l 191 190
l 622 133
l 133 623
l 624 133
l 192 623
l 624 625
l 625 626
l 193 626
l 627 193
l 628 627
l 629 630
l 194 629
l 631 632
l 632 194
l 191 633
l 633 634
l 134 622
l 634 134
l 631 635
l 134 635
l 192 636
l 636 637
l 637 638
l 638 639
l 345 640
l 640 641
l 641 347
l 642 639
l 643 642
l 195 643
l 196 195
l 644 135
l 135 645
l 646 135
l 197 645
l 646 647
l 647 648
l 198 648
l 649 198
l 650 649
l 651 652
l 199 651
l 653 654
l 654 199
l 196 655
l 655 656
l 136 644
l 656 136
l 653 657
l 136 657
l 197 658
l 658 659
l 659 660
l 660 661
l 349 662
l 662 663
l 663 351
l 664 661
l 665 664
l 200 665
l 201 200
l 666 137
l 137 667
l 668 137
l 202 667
l 668 669
l 669 670
l 203 670
l 671 203
l 672 671
l 673 674
l 204 673
l 675 676
l 676 204
l 201 677
l 677 678
l 138 666
l 678 138
l 675 679
l 138 679
l 202 680
l 680 681
l 681 682
l 682 683
l 353 684
l 684 685
l 685 355
l 686 683
l 687 686
l 205 687
l 206 205
l 688 139
l 139 689
l 690 139
l 207 689
l 690 691
l 691 692
l 208 692
l 693 208
l 694 693
l 695 696
l 209 695
l 697 698
l 698 209
l 206 699
l 699 700
l 140 688
l 700 140
l 697 701
l 140 701
l 207 702
l 702 703
l 703 704
l 704 705
l 357 706
l 706 707
l 707 359
l 708 705
l 709 708
l 210 709
l 211 210
l 710 711
l 212 710
l 712 713
l 713 212
l 211 714
l 714 715
l 141 568
l 715 141
l 712 716
l 141 716
l 214 717
l 215 718
l 213 719
l 223 720
l 224 721
l 225 722
l 226 723
l 233 724
l 725 718
l 215 726
l 727 728
l 218 729
l 730 717
l 731 213
l 214 732
l 234 730
l 235 725
l 732 236
l 726 237
l 236 234
l 237 235
l 733 734
l 735 216
l 733 238
l 735 239
l 239 238
l 736 737
l 217 738
l 736 240
l 241 727
l 738 242
l 729 243
l 242 240
l 243 241
l 739 740
l 741 219
l 739 244
l 741 245
l 245 244
l 742 743
l 742 246
l 744 745
l 220 746
l 221 747
l 746 247
l 745 248
l 247 246
l 747 249
l 249 248
l 748 721
l 749 224
l 750 722
l 751 225
l 250 750
l 749 251
l 252 748
l 752 223
l 751 253
l 251 252
l 253 250
l 753 723
l 753 254
l 754 755
l 226 756
l 757 227
l 255 754
l 756 256
l 757 257
l 256 254
l 257 255
l 758 759
l 230 760
l 761 724
l 762 233
l 763 719
l 731 258
l 259 763
l 258 259
l 762 260
l 261 761
l 764 232
l 260 261
l 765 766
l 222 767
l 765 262
l 767 263
l 263 262
l 768 720
l 768 264
l 752 265
l 265 264
l 769 770
l 228 771
l 769 266
l 771 267
l 267 266
l 772 773
l 229 774
l 772 268
l 269 758
l 774 270
l 760 271
l 270 268
l 271 269
l 775 776
l 777 231
l 775 272
l 777 273
l 273 272
l 778 779
l 778 274
l 764 275
l 275 274
l 277 780
l 278 781
l 279 782
l 280 783
l 281 784
l 282 785
l 283 786
l 284 787
l 276 788
l 285 789
l 286 790
l 287 791
l 288 792
l 289 793
l 290 794
l 291 795
l 292 796
l 293 797
l 294 798
l 295 799
l 296 800
l 801 781
l 802 784
l 803 780
l 277 804
l 805 801
l 804 806
l 807 782
l 278 808
l 809 807
l 808 810
l 297 805
l 810 298
l 809 811
l 279 812
l 783 813
l 280 814
l 815 802
l 813 816
l 812 817
l 814 818
l 817 299
l 819 816
l 818 300
l 815 820
l 281 821
l 785 822
l 823 822
l 821 824
l 824 301
l 823 825
l 282 826
l 786 827
l 827 828
l 826 829
l 829 302
l 828 830
l 283 831
l 787 832
l 831 833
l 832 834
l 833 303
l 834 835
l 284 836
l 789 837
l 838 837
l 836 839
l 839 304
l 838 840
l 285 841
l 790 842
l 843 791
l 286 844
l 845 843
l 846 842
l 841 847
l 844 848
l 847 305
l 849 846
l 848 306
l 845 492
l 287 850
l 792 851
l 851 852
l 850 853
l 853 307
l 852 854
l 288 855
l 793 856
l 856 857
l 855 858
l 858 308
l 857 859
l 289 860
l 794 861
l 862 861
l 860 863
l 863 309
l 862 864
l 290 865
l 795 866
l 866 867
l 865 868
l 868 310
l 867 869
l 291 870
l 796 871
l 872 871
l 870 873
l 873 311
l 872 874
l 292 875
l 797 876
l 875 877
l 876 878
l 877 312
l 878 879
l 293 880
l 798 881
l 882 881
l 880 883
l 883 313
l 882 884
l 294 885
l 799 886
l 886 887
l 885 888
l 888 314
l 887 889
l 295 890
l 800 891
l 892 891
l 890 893
l 893 315
l 892 894
l 296 895
l 788 896
l 895 897
l 896 898
l 897 316
l 898 899
l 276 900
l 901 803
l 900 902
l 902 317
l 903 901
l 806 318
l 904 905
l 906 696
l 319 904
l 905 907
l 908 906
l 908 909
l 909 142
l 142 910
l 907 142
l 911 319
l 911 912
l 320 913
l 913 912
l 672 914
l 915 320
l 914 916
l 917 915
l 918 916
l 918 919
l 920 917
l 143 919
l 921 143
l 143 920
l 674 922
l 922 923
l 923 924
l 144 921
l 924 144
l 925 926
l 144 925
l 926 927
l 928 927
l 321 928
l 321 929
l 930 929
l 930 931
l 322 932
l 932 931
l 650 933
l 934 322
l 933 935
l 936 934
l 937 935
l 937 938
l 939 936
l 145 938
l 940 145
l 145 939
l 652 941
l 941 942
l 942 943
l 943 146
l 146 940
l 944 146
l 945 944
l 946 945
l 323 946
l 947 323
l 947 948
l 324 949
l 949 948
l 628 950
l 951 324
l 950 952
l 953 951
l 954 952
l 954 955
l 956 953
l 147 955
l 957 147
l 147 956
l 630 958
l 958 959
l 959 960
l 960 148
l 148 957
l 961 148
l 962 961
l 963 962
l 325 963
l 325 964
l 965 964
l 326 966
l 966 965
l 606 967
l 968 326
l 967 969
l 970 968
l 971 969
l 971 972
l 973 970
l 149 972
l 974 149
l 149 973
l 608 975
l 975 976
l 976 977
l 977 150
l 150 974
l 978 979
l 979 150
l 980 978
l 327 980
l 981 327
l 981 982
l 328 983
l 983 982
l 584 984
l 985 328
l 984 986
l 987 985
l 988 986
l 988 989
l 990 987
l 151 989
l 991 151
l 151 990
l 586 992
l 992 993
l 993 994
l 994 152
l 152 991
l 995 152
l 996 995
l 997 996
l 153 997
l 153 998
l 999 998
l 329 1000
l 1000 999
l 563 1001
l 1002 329
l 1001 1003
l 1004 1002
l 1005 1003
l 1005 1006
l 1007 1004
l 154 1006
l 1008 154
l 154 1007
l 711 1009
l 1009 1010
l 1010 1011
l 155 1008
l 1011 155
l 1012 1013
l 155 1012
l 1013 1014
l 1015 1014
l 330 1015
l 330 1016
l 1017 1016
l 1017 1018
l 331 1019
l 1019 1018
l 694 1020
l 1021 331
l 1020 1022
l 1023 1021
l 1024 1022
l 1023 1025
l 156 910
l 1025 156
l 1024 1026
l 156 1026
l 1027 1028
l 1028 1029
l 1030 1027
l 1031 1030
l 1032 1031
l 1032 1033
l 1029 1034
l 1034 1035
l 1035 1036
l 1037 1036
l 1038 1033
l 1038 1039
l 1040 1039
l 1040 1037
l 1041 157
l 157 1042
l 1043 157
l 1041 1044
l 1045 1042
l 1044 158
l 1045 1046
l 159 158
l 1046 159
l 159 1043
l 1047 160
l 160 1048
l 1049 160
l 1047 1050
l 1051 1048
l 1050 161
l 1051 1052
l 162 161
l 1052 162
l 162 1049
l 1053 163
l 163 1054
l 1055 163
l 1053 1056
l 1057 1054
l 1056 164
l 1057 1058
l 165 164
l 1058 165
l 165 1055
l 1059 166
l 166 1060
l 1061 166
l 1059 1062
l 1063 1060
l 1062 167
l 1063 1064
l 168 167
l 1064 168
l 168 1061
l 1065 169
l 169 1066
l 1067 169
l 1065 1068
l 1069 1066
l 1068 170
l 1069 1070
l 171 170
l 1070 171
l 171 1067
l 1071 172
l 172 1072
l 1073 172
l 1071 1074
l 1075 1072
l 1074 173
l 1075 1076
l 174 173
l 1076 174
l 174 1073
l 1077 175
l 175 1078
l 1079 175
l 1077 1080
l 1081 1078
l 1080 176
l 1081 1082
l 177 176
l 1082 177
l 177 1079
# </edges>
