# Wavefront OBJ file written 2026-02-02T11:21:32
o RR_mm_edgeMesh

# points : 1082
# lines  : 1210

# <points count="1082">
v -1.95722 -0.961075 -0.641188
v -1.95856 -1.00115 -0.543366
v -1.90926 -1.00115 -0.599082
v -2.05074 -0.961115 -0.397136
v -1.96923 -1.00115 -0.334514
v -1.985 -1.00115 -0.404966
v -1.89843 -0.961055 -0.172938
v -1.79492 -1.00115 -0.193799
v -1.86485 -1.00115 -0.225547
v -1.67854 -0.961225 -0.726742
v -1.76456 -1.00115 -0.669219
v -1.68672 -1.00115 -0.665791
v -1.63032 -0.961235 -0.140507
v -1.57952 -1.00115 -0.226631
v -1.65138 -1.00115 -0.19879
v -1.42182 -0.961225 -0.319813
v -1.4636 -1.00115 -0.409952
v -1.4844 -1.00115 -0.340622
v -1.44273 -0.961245 -0.578089
v -1.54491 -1.00115 -0.604995
v -1.49975 -1.00115 -0.54636
v -2.07456 -0.967665 -0.688483
v -2.06645 -0.883035 -0.731137
v -2.13711 -0.967665 -0.591992
v -2.17294 -0.967665 -0.451392
v -2.16354 -0.967665 -0.339279
v -2.19461 -0.883035 -0.371724
v -2.12082 -0.967665 -0.233975
v -2.02407 -0.967665 -0.120457
v -1.92326 -0.967665 -0.057337
v -1.97011 -0.883035 -0.055137
v -1.72332 -0.967665 -0.84199
v -1.98546 -0.967665 -0.765166
v -1.84404 -0.967665 -0.826972
v -2.00359 -0.883035 -0.780991
v -1.96521 -0.883035 -0.80418
v -1.89056 -0.883035 -0.837421
v -2.14176 -0.883035 -0.635027
v -2.11808 -0.883035 -0.671291
v -2.19335 -0.883035 -0.490333
v -2.17497 -0.883035 -0.564931
v -2.19764 -0.883035 -0.448178
v -2.16016 -0.883035 -0.257451
v -2.17612 -0.883035 -0.297149
v -2.06978 -0.883035 -0.129997
v -2.1215 -0.883035 -0.189782
v -2.03675 -0.883035 -0.100627
v -1.37431 -0.967665 -0.684206
v -1.4623 -0.967665 -0.76197
v -1.60282 -0.967665 -0.825499
v -1.68214 -0.883035 -0.862733
v -1.81049 -0.883035 -0.857159
v -1.76502 -0.883035 -0.862682
v -1.60072 -0.883035 -0.848446
v -1.80743 -0.967665 -0.022517
v -1.85185 -0.883035 -0.008757
v -1.89541 -0.883035 -0.021997
v -1.65096 -0.967665 -0.021557
v -1.53465 -0.967665 -0.054957
v -1.562 -0.883035 -0.019777
v -1.43294 -0.967665 -0.116847
v -1.33457 -0.967665 -0.229172
v -1.29034 -0.967665 -0.333946
v -1.2776 -0.883035 -0.292269
v -1.27934 -0.967665 -0.445934
v -1.31315 -0.967665 -0.586959
v -1.33106 -0.883035 -0.667419
v -1.41581 -0.883035 -0.756578
v -1.38278 -0.883035 -0.727201
v -1.2924 -0.883035 -0.59975
v -1.55715 -0.883035 -0.835208
v -1.48245 -0.883035 -0.80206
v -1.68755 -0.883035 0.005483
v -1.77043 -0.883035 0.005533
v -1.64207 -0.883035 -3.7e-05
v -1.44897 -0.883035 -0.076207
v -1.48735 -0.883035 -0.053017
v -1.33448 -0.883035 -0.18591
v -1.38611 -0.883035 -0.126067
v -1.3108 -0.883035 -0.222174
v -1.25492 -0.883035 -0.409023
v -1.25921 -0.883035 -0.366867
v -1.27645 -0.883035 -0.560052
v -1.25795 -0.883035 -0.485477
v -2.09858 -0.831485 -0.706408
v -2.16545 -0.831485 -0.603248
v -2.20374 -0.831485 -0.452978
v -2.1937 -0.831485 -0.333119
v -2.14802 -0.831485 -0.22054
v -2.04462 -0.831485 -0.099217
v -1.93684 -0.831485 -0.031727
v -1.72311 -0.831485 -0.870503
v -1.85218 -0.831485 -0.854443
v -2.00333 -0.831485 -0.788385
v -2.061 -0.671665 -0.678361
v -2.12112 -0.671665 -0.585601
v -2.10272 -0.671665 -0.620285
v -2.15554 -0.671665 -0.450533
v -2.14651 -0.671665 -0.342758
v -2.10543 -0.671665 -0.241531
v -2.01249 -0.671665 -0.132477
v -1.97534 -0.671665 -0.752072
v -1.83949 -0.671665 -0.811447
v -1.72343 -0.671665 -0.825889
v -1.91558 -0.671665 -0.071797
v -1.35003 -0.831485 -0.701836
v -1.4441 -0.831485 -0.784969
v -1.59429 -0.831485 -0.852867
v -1.81301 -0.831485 0.005493
v -1.64578 -0.831485 0.006513
v -1.80424 -0.671665 -0.038327
v -1.52143 -0.831485 -0.029187
v -1.65393 -0.671665 -0.037407
v -1.41269 -0.831485 -0.095357
v -1.54211 -0.671665 -0.069517
v -1.6076 -0.671665 -0.810031
v -1.47261 -0.671665 -0.749001
v -1.38802 -0.671665 -0.67425
v -1.30756 -0.831485 -0.215406
v -1.44434 -0.671665 -0.129007
v -1.26027 -0.831485 -0.327417
v -1.34984 -0.671665 -0.236915
v -1.30732 -0.671665 -0.337632
v -1.24852 -0.831485 -0.447143
v -1.28465 -0.831485 -0.597868
v -1.29675 -0.671665 -0.445287
v -1.32923 -0.671665 -0.580764
v -1.93536 -0.933085 -0.627096
v -2.024 -0.933048 -0.404029
v -1.98452 -0.932804 -0.55624
v -1.88873 -0.9331 -0.195426
v -1.99718 -0.93284 -0.323749
v -1.6784 -0.932923 -0.698241
v -1.76924 -0.932938 -0.699306
v -1.64386 -0.932919 -0.166523
v -1.80256 -0.93279 -0.167823
v -1.45177 -0.932943 -0.325908
v -1.56105 -0.932966 -0.201015
v -1.46763 -0.932892 -0.560012
v -1.43095 -0.932943 -0.407533
v -1.52161 -0.932969 -0.627487
v -1.63004 -0.856265 -0.545378
v -1.58044 -0.856265 -0.48648
v -1.5677 -0.856265 -0.433349
v -1.58536 -0.856265 -0.36054
v -1.62397 -0.856265 -0.316449
v -1.65062 -0.903419 -0.344864
v -1.69698 -0.856265 -0.284467
v -1.75041 -0.856265 -0.284793
v -1.82564 -0.856265 -0.312372
v -1.86437 -0.856265 -0.35781
v -1.8862 -0.856265 -0.429717
v -1.87267 -0.856265 -0.482818
v -1.8264 -0.856265 -0.544117
v -1.76631 -0.856265 -0.570376
v -1.68549 -0.856265 -0.570447
v -1.75549 -0.856265 -0.575106
v -1.72501 -0.871267 -0.606496
v -1.68926 -0.856265 -0.572151
v -1.61986 -0.856265 -0.540776
v -1.57489 -0.871199 -0.538545
v -1.58149 -0.856265 -0.490867
v -1.87323 -0.856265 -0.368209
v -1.91463 -0.87141 -0.390125
v -1.88659 -0.856265 -0.428184
v -1.76581 -0.856265 -0.284887
v -1.81114 -0.87143 -0.268656
v -1.82529 -0.856265 -0.311962
v -1.56508 -0.856265 -0.422406
v -1.53867 -0.87128 -0.387864
v -1.58283 -0.856265 -0.363432
v -1.6313 -0.856265 -0.30808
v -1.64384 -0.871231 -0.267851
v -1.69243 -0.856265 -0.284439
v -1.86921 -0.856265 -0.496381
v -1.87632 -0.871429 -0.54056
v -1.82719 -0.856265 -0.543768
v -2.00682 -0.961481 -0.586435
v -1.95375 -0.951942 -0.639987
v -2.01152 -0.963735 -0.575922
v -1.94692 -0.957844 -0.632642
v -2.048 -0.953314 -0.398613
v -2.03593 -0.957825 -0.399289
v -1.9935 -0.957698 -0.56465
v -2.03546 -0.961488 -0.325177
v -2.03053 -0.963378 -0.316938
v -1.89792 -0.951401 -0.17652
v -1.89197 -0.957852 -0.183765
v -2.00996 -0.957717 -0.322674
v -1.83021 -0.961474 -0.141018
v -1.81723 -0.963869 -0.139013
v -1.67811 -0.957299 -0.725314
v -1.68029 -0.957766 -0.710017
v -1.76428 -0.961427 -0.730924
v -1.76783 -0.962136 -0.730008
v -1.76696 -0.957776 -0.71113
v -1.63124 -0.957832 -0.141475
v -1.63669 -0.957758 -0.156659
v -1.80937 -0.957691 -0.157853
v -1.55019 -0.96141 -0.17117
v -1.54811 -0.961945 -0.172856
v -1.42353 -0.957039 -0.319732
v -1.43891 -0.95777 -0.32502
v -1.55762 -0.957784 -0.189418
v -1.39857 -0.961435 -0.395685
v -1.39877 -0.962227 -0.39949
v -1.44343 -0.958357 -0.577207
v -1.45876 -0.95775 -0.568624
v -1.49326 -0.961392 -0.644202
v -1.41898 -0.957772 -0.402891
v -1.49475 -0.961751 -0.645202
v -1.51005 -0.957792 -0.63311
v -2.05966 -0.961695 -0.677367
v -1.97438 -0.961695 -0.750769
v -2.11954 -0.961695 -0.585003
v -2.15383 -0.961695 -0.450417
v -2.14484 -0.961695 -0.3431
v -2.10394 -0.961695 -0.2423
v -2.01133 -0.961695 -0.133637
v -1.91483 -0.961695 -0.073217
v -1.83901 -0.961695 -0.809932
v -1.72344 -0.961685 -0.824308
v -1.80396 -0.961695 -0.039887
v -1.6081 -0.961695 -0.808522
v -1.47359 -0.961695 -0.74771
v -1.38936 -0.961685 -0.673273
v -1.65419 -0.961695 -0.038967
v -1.54284 -0.961685 -0.070947
v -1.44548 -0.961695 -0.130177
v -1.35133 -0.961695 -0.237703
v -1.30899 -0.961685 -0.337994
v -1.29846 -0.961695 -0.445193
v -1.33082 -0.961695 -0.580186
v -1.99173 -0.880685 -0.765917
v -2.0519 -0.880685 -0.718196
v -1.88354 -0.880685 -0.819934
v -1.95499 -0.880685 -0.788115
v -2.10132 -0.880685 -0.66091
v -2.12399 -0.880685 -0.626197
v -2.15577 -0.880685 -0.5591
v -2.17748 -0.880685 -0.44734
v -2.17338 -0.880685 -0.487693
v -2.17458 -0.880685 -0.374157
v -2.15687 -0.880685 -0.302772
v -2.1416 -0.880685 -0.264772
v -2.10459 -0.880685 -0.199997
v -2.02347 -0.880685 -0.114647
v -2.05509 -0.880685 -0.142777
v -1.95968 -0.880685 -0.071117
v -1.76336 -0.880685 -0.844115
v -1.80689 -0.880685 -0.838828
v -1.68403 -0.880685 -0.844164
v -1.60609 -0.880685 -0.830488
v -1.88818 -0.880685 -0.039387
v -1.84647 -0.880685 -0.026717
v -1.39747 -0.880685 -0.714428
v -1.34797 -0.880685 -0.657204
v -1.31096 -0.880685 -0.592429
v -1.42909 -0.880685 -0.742549
v -1.49288 -0.880685 -0.786086
v -1.56438 -0.880685 -0.817816
v -1.76854 -0.880685 -0.013037
v -1.64567 -0.880685 -0.018377
v -1.6892 -0.880685 -0.013087
v -1.56903 -0.880685 -0.037267
v -1.49757 -0.880685 -0.069087
v -1.46084 -0.880685 -0.091287
v -1.40066 -0.880685 -0.139007
v -1.32857 -0.880685 -0.231004
v -1.35124 -0.880685 -0.196291
v -1.29679 -0.880685 -0.298101
v -1.27919 -0.880685 -0.369508
v -1.27508 -0.880685 -0.40986
v -1.27798 -0.880685 -0.483044
v -1.29569 -0.880685 -0.554429
v -1.99148 -0.831335 -0.772996
v -2.08266 -0.831335 -0.694525
v -2.14667 -0.831335 -0.595778
v -2.18332 -0.831335 -0.451935
v -2.17371 -0.831335 -0.337203
v -2.12998 -0.831335 -0.229439
v -2.031 -0.831335 -0.113307
v -1.92784 -0.831335 -0.048707
v -1.84679 -0.831335 -0.836228
v -1.72325 -0.831335 -0.851601
v -1.8093 -0.831335 -0.013077
v -1.59994 -0.831335 -0.83472
v -1.45617 -0.831335 -0.769726
v -1.36613 -0.831335 -0.690149
v -1.64923 -0.831335 -0.012097
v -1.53019 -0.831335 -0.046277
v -1.42611 -0.831335 -0.109607
v -1.32547 -0.831335 -0.224525
v -1.28021 -0.831335 -0.331745
v -1.26895 -0.831335 -0.44635
v -1.30354 -0.831335 -0.590628
v -2.04668 -0.678355 -0.667678
v -2.10423 -0.678355 -0.578886
v -2.13718 -0.678355 -0.449595
v -2.12854 -0.678355 -0.34643
v -2.08922 -0.678355 -0.249532
v -2.00025 -0.678355 -0.145147
v -1.96469 -0.678355 -0.738236
v -1.83464 -0.678355 -0.795071
v -1.72356 -0.678355 -0.808895
v -1.90749 -0.678355 -0.087057
v -1.8009 -0.678355 -0.055017
v -1.65702 -0.678355 -0.054137
v -1.61792 -0.678355 -0.062127
v -1.54999 -0.678355 -0.084877
v -1.61268 -0.678355 -0.793715
v -1.48346 -0.678355 -0.735297
v -1.40249 -0.678355 -0.663743
v -1.4564 -0.678355 -0.141827
v -1.36595 -0.678355 -0.245114
v -1.32524 -0.678355 -0.341523
v -1.31512 -0.678355 -0.444573
v -1.34621 -0.678355 -0.574256
v -1.65428 -0.903458 -0.515115
v -1.61946 -0.904789 -0.473053
v -1.60828 -0.903362 -0.431621
v -1.62139 -0.904891 -0.380081
v -1.70265 -0.904829 -0.322601
v -1.74481 -0.903028 -0.321445
v -1.79773 -0.905353 -0.341906
v -1.82945 -0.90313 -0.376294
v -1.84405 -0.905192 -0.427503
v -1.83521 -0.903056 -0.469491
v -1.80158 -0.905307 -0.512396
v -1.75552 -0.903381 -0.534196
v -1.69818 -0.904871 -0.533723
v -1.98229 -0.958037 -0.611723
v -1.98069 -0.958085 -0.618439
v -1.9735 -0.958034 -0.621463
v -1.85151 -0.957165 -0.672763
v -2.01116 -0.957165 -0.490455
v -2.04379 -0.958034 -0.370353
v -2.04569 -0.958085 -0.363353
v -2.04119 -0.958039 -0.35823
v -1.95629 -0.957165 -0.261569
v -1.87498 -0.958034 -0.163216
v -1.87017 -0.958085 -0.157397
v -1.8626 -0.958036 -0.157454
v -1.59756 -0.957165 -0.671212
v -1.7175 -0.958037 -0.727467
v -1.72412 -0.958085 -0.730572
v -1.72967 -0.958045 -0.728053
v -1.72822 -0.957165 -0.158461
v -1.59365 -0.958037 -0.155812
v -1.5863 -0.958085 -0.155667
v -1.58256 -0.958046 -0.16006
v -1.49869 -0.957165 -0.258774
v -1.41261 -0.958037 -0.354165
v -1.40784 -0.958085 -0.359457
v -1.40928 -0.958044 -0.365074
v -1.44054 -0.957165 -0.486969
v -1.4677 -0.958038 -0.608726
v -1.46917 -0.958085 -0.615314
v -1.47452 -0.958047 -0.617643
v -2.01963 -0.967665 -0.740355
v -1.99985 -0.934585 -0.776249
v -2.06187 -0.934585 -0.727063
v -2.17323 -0.967665 -0.411267
v -2.19129 -0.934585 -0.447919
v -2.18831 -0.934585 -0.37249
v -1.99027 -0.967665 -0.095227
v -2.03257 -0.934585 -0.105037
v -1.96683 -0.934585 -0.060167
v -1.962 -0.934585 -0.799121
v -1.91792 -0.967665 -0.802239
v -1.88835 -0.934585 -0.831917
v -1.80935 -0.934585 -0.85139
v -1.8016 -0.967665 -0.835642
v -2.11799 -0.967665 -0.628028
v -2.13616 -0.934585 -0.632252
v -2.11281 -0.934585 -0.668019
v -2.16222 -0.967665 -0.523255
v -2.16893 -0.934585 -0.563096
v -2.18707 -0.934585 -0.489497
v -2.13942 -0.967665 -0.270242
v -2.15432 -0.934585 -0.25976
v -2.17006 -0.934585 -0.298914
v -2.07826 -0.967665 -0.172995
v -2.11618 -0.934585 -0.192997
v -2.06515 -0.934585 -0.134017
v -1.64513 -0.967665 -0.834686
v -1.6024 -0.934585 -0.842793
v -1.68273 -0.934585 -0.856888
v -1.7645 -0.934585 -0.856837
v -1.55943 -0.934585 -0.829736
v -1.84974 -0.967665 -0.031707
v -1.85016 -0.934585 -0.014407
v -1.89313 -0.934585 -0.027467
v -1.60852 -0.967665 -0.030227
v -1.64321 -0.934585 -0.005807
v -1.56421 -0.934585 -0.025287
v -1.31545 -0.967665 -0.265209
v -1.3164 -0.934585 -0.224949
v -1.28364 -0.934585 -0.294105
v -1.33175 -0.967665 -0.623226
v -1.29824 -0.934585 -0.597441
v -1.33639 -0.934585 -0.664203
v -1.42849 -0.967665 -0.736745
v -1.41999 -0.934585 -0.752159
v -1.38741 -0.934585 -0.723184
v -1.28251 -0.934585 -0.558287
v -1.52931 -0.967665 -0.799865
v -1.48574 -0.934585 -0.797032
v -1.72924 -0.967665 -0.015207
v -1.76983 -0.934585 -0.000317
v -1.68806 -0.934585 -0.000367
v -1.4671 -0.967665 -0.092037
v -1.45271 -0.934585 -0.080947
v -1.49056 -0.934585 -0.058077
v -1.378 -0.967665 -0.168717
v -1.39069 -0.934585 -0.130137
v -1.33975 -0.934585 -0.189181
v -1.27963 -0.967665 -0.405809
v -1.26127 -0.934585 -0.409282
v -1.2655 -0.934585 -0.367703
v -1.28902 -0.967665 -0.517921
v -1.26426 -0.934585 -0.484711
v -2.03987 -0.831485 -0.761847
v -2.06738 -0.779715 -0.731956
v -2.00435 -0.779715 -0.781938
v -2.20405 -0.831485 -0.410058
v -2.19588 -0.779715 -0.37157
v -2.19892 -0.779715 -0.448221
v -2.00846 -0.831485 -0.072227
v -1.97077 -0.779715 -0.054127
v -2.03758 -0.779715 -0.099727
v -1.96585 -0.779715 -0.805202
v -1.93114 -0.831485 -0.828009
v -1.89101 -0.779715 -0.838528
v -1.96327 -0.727945 -0.801165
v -2.145 -0.831485 -0.641794
v -2.14289 -0.779715 -0.635577
v -2.11914 -0.779715 -0.671956
v -2.06372 -0.727945 -0.728702
v -2.00137 -0.727945 -0.778145
v -2.00822 -0.671665 -0.728193
v -2.11492 -0.727945 -0.66935
v -2.13842 -0.727945 -0.633352
v -2.19229 -0.831485 -0.529784
v -2.19462 -0.779715 -0.49051
v -2.17618 -0.779715 -0.565301
v -2.18959 -0.727945 -0.489851
v -2.17136 -0.727945 -0.563834
v -2.14524 -0.671665 -0.519568
v -2.19385 -0.727945 -0.448005
v -2.19084 -0.727945 -0.372182
v -2.16792 -0.831485 -0.259333
v -2.16133 -0.779715 -0.256979
v -2.17734 -0.779715 -0.296803
v -2.15581 -0.671665 -0.411913
v -2.1725 -0.727945 -0.298222
v -2.15667 -0.727945 -0.258815
v -2.10253 -0.831485 -0.155367
v -2.07072 -0.779715 -0.129197
v -2.12257 -0.779715 -0.189135
v -2.06703 -0.727945 -0.132417
v -2.11832 -0.727945 -0.191704
v -2.12334 -0.671665 -0.276436
v -2.06455 -0.671665 -0.18295
v -2.03424 -0.727945 -0.103257
v -1.96815 -0.727945 -0.058147
v -1.97996 -0.671665 -0.108197
v -1.91045 -0.671665 -0.787686
v -1.88924 -0.727945 -0.834131
v -1.81073 -0.779715 -0.858317
v -1.80678 -0.831485 -0.863716
v -1.76511 -0.779715 -0.863857
v -1.80983 -0.727945 -0.853706
v -1.76469 -0.727945 -0.859189
v -1.68202 -0.779715 -0.863909
v -1.63955 -0.831485 -0.862695
v -1.60039 -0.779715 -0.849585
v -1.68249 -0.727945 -0.85924
v -1.79864 -0.671665 -0.819791
v -1.64833 -0.671665 -0.818873
v -1.60174 -0.727945 -0.84507
v -1.55668 -0.779715 -0.836305
v -1.51572 -0.831485 -0.825472
v -1.48179 -0.779715 -0.803072
v -1.55849 -0.727945 -0.831929
v -1.85827 -0.831485 -0.004337
v -1.85218 -0.779715 -0.007617
v -1.89588 -0.779715 -0.020897
v -1.89407 -0.727945 -0.025267
v -1.85082 -0.727945 -0.012127
v -1.72945 -0.831485 0.013303
v -1.68745 -0.779715 0.006653
v -1.77055 -0.779715 0.006713
v -1.84496 -0.671665 -0.047167
v -1.77007 -0.727945 0.002043
v -1.68788 -0.727945 0.001993
v -1.72913 -0.671665 -0.031307
v -1.60039 -0.831485 -0.002757
v -1.56155 -0.779715 -0.018677
v -1.64183 -0.779715 0.001113
v -1.64273 -0.727945 -0.003497
v -1.56332 -0.727945 -0.023067
v -1.61308 -0.671665 -0.045757
v -1.44924 -0.831485 -0.068817
v -1.44822 -0.779715 -0.075267
v -1.48671 -0.779715 -0.051997
v -1.48929 -0.727945 -0.056037
v -1.45119 -0.727945 -0.079057
v -1.65166 -0.678355 -0.80218
v -1.53698 -0.671665 -0.785404
v -1.48442 -0.727945 -0.799055
v -1.41498 -0.779715 -0.757472
v -1.40794 -0.831485 -0.757987
v -1.38184 -0.779715 -0.728002
v -1.41832 -0.727945 -0.753948
v -1.38553 -0.727945 -0.724786
v -1.32999 -0.779715 -0.668066
v -1.30454 -0.831485 -0.636661
v -1.29123 -0.779715 -0.600222
v -1.33424 -0.727945 -0.665497
v -1.44007 -0.671665 -0.724723
v -1.34713 -0.671665 -0.61567
v -1.2959 -0.727945 -0.598386
v -1.35398 -0.831485 -0.150797
v -1.33343 -0.779715 -0.185245
v -1.38519 -0.779715 -0.125247
v -1.47722 -0.671665 -0.105127
v -1.38885 -0.727945 -0.128497
v -1.33764 -0.727945 -0.187851
v -1.39157 -0.671665 -0.17884
v -1.28711 -0.831485 -0.253953
v -1.27638 -0.779715 -0.2919
v -1.30967 -0.779715 -0.221624
v -1.31414 -0.727945 -0.223849
v -1.28121 -0.727945 -0.293366
v -1.33144 -0.671665 -0.271599
v -1.24882 -0.831485 -0.404223
v -1.25365 -0.779715 -0.40898
v -1.25795 -0.779715 -0.36669
v -1.26297 -0.727945 -0.367349
v -1.25872 -0.727945 -0.409196
v -1.25886 -0.831485 -0.524082
v -1.27523 -0.779715 -0.560398
v -1.25668 -0.779715 -0.485631
v -1.28006 -0.727945 -0.558979
v -1.26172 -0.727945 -0.485019
v -1.29703 -0.671665 -0.406668
v -1.30605 -0.671665 -0.514442
v -1.72581 -0.948395 -0.494192
v -1.75368 -0.948395 -0.482013
v -1.69812 -0.948395 -0.481674
v -1.67044 -0.948395 -0.469157
v -1.78154 -0.948395 -0.469835
v -1.66377 -0.948395 -0.441369
v -1.65711 -0.948395 -0.413582
v -1.7886 -0.948395 -0.442132
v -1.79566 -0.948395 -0.414428
v -1.7766 -0.948395 -0.39206
v -1.75754 -0.948395 -0.369693
v -1.67649 -0.948395 -0.391449
v -1.69588 -0.948395 -0.369316
v -1.7267 -0.948395 -0.369504
v -1.97466 -0.958044 -0.620182
v -1.978 -0.95794 -0.616428
v -1.97253 -0.933615 -0.612349
v -1.9678 -0.933548 -0.614225
v -1.96771 -0.933597 -0.614354
v -1.9669 -0.934696 -0.615878
v -1.97348 -0.93355 -0.607885
v -1.99108 -0.948298 -0.596602
v -1.93596 -0.933475 -0.627564
v -1.84623 -0.931815 -0.662462
v -1.93912 -0.940117 -0.629028
v -1.94537 -0.953947 -0.631775
v -1.94609 -0.955436 -0.632051
v -1.94299 -0.957831 -0.629337
v -1.93152 -0.957165 -0.619695
v -1.99914 -0.931815 -0.487845
v -2.02482 -0.933465 -0.403887
v -2.02825 -0.940586 -0.402451
v -2.03399 -0.953355 -0.399917
v -2.03473 -0.954973 -0.399545
v -2.03028 -0.957811 -0.400072
v -2.01545 -0.957165 -0.402143
v -1.98318 -0.957165 -0.558228
v -1.97671 -0.957165 -0.554202
v -1.98874 -0.94662 -0.561442
v -1.9891 -0.947523 -0.561814
v -2.00474 -0.956118 -0.57163
v -2.00317 -0.954305 -0.570445
v -1.98819 -0.944837 -0.56079
v -2.03543 -0.935413 -0.372719
v -2.03415 -0.933597 -0.370128
v -2.0341 -0.933548 -0.369981
v -2.03544 -0.933615 -0.365447
v -2.04344 -0.958045 -0.368712
v -2.0424 -0.957944 -0.364026
v -2.03239 -0.933553 -0.362125
v -2.03431 -0.950823 -0.339305
v -1.94658 -0.931815 -0.268616
v -1.88908 -0.933479 -0.1948
v -1.88989 -0.939933 -0.191712
v -1.89143 -0.95418 -0.185264
v -1.89156 -0.955617 -0.184577
v -1.88944 -0.957839 -0.187912
v -1.88176 -0.957165 -0.200578
v -1.9976 -0.957165 -0.326144
v -1.99048 -0.957165 -0.328149
v -2.00452 -0.947172 -0.323998
v -2.00503 -0.948015 -0.323976
v -2.02386 -0.956948 -0.318759
v -2.02216 -0.955406 -0.319086
v -2.00364 -0.945421 -0.323983
v -1.87007 -0.934416 -0.170275
v -1.86874 -0.933596 -0.169994
v -1.86859 -0.933548 -0.169942
v -1.86555 -0.933615 -0.166101
v -1.87337 -0.958044 -0.162461
v -1.86863 -0.957939 -0.160298
v -1.86055 -0.93355 -0.166238
v -1.8457 -0.947267 -0.153848
v -1.60299 -0.931815 -0.660976
v -1.67834 -0.933422 -0.699153
v -1.67913 -0.941982 -0.703198
v -1.68008 -0.951695 -0.707502
v -1.68033 -0.953672 -0.708407
v -1.7129 -0.937531 -0.719898
v -1.71988 -0.933579 -0.718827
v -1.72004 -0.933534 -0.718819
v -1.72419 -0.933595 -0.720866
v -1.71928 -0.958048 -0.727556
v -1.72414 -0.957957 -0.727757
v -1.72768 -0.933544 -0.719194
v -1.75952 -0.957798 -0.729395
v -1.681 -0.957751 -0.703686
v -1.68236 -0.957165 -0.691329
v -1.76633 -0.957165 -0.697872
v -1.76605 -0.957165 -0.692011
v -1.76693 -0.948875 -0.706693
v -1.76684 -0.949611 -0.707101
v -1.76773 -0.959668 -0.727514
v -1.76776 -0.959063 -0.726877
v -1.76714 -0.947326 -0.705983
v -1.72814 -0.931815 -0.169858
v -1.64349 -0.933431 -0.165655
v -1.64083 -0.94219 -0.162252
v -1.63809 -0.951478 -0.15891
v -1.63743 -0.953501 -0.158182
v -1.63905 -0.957743 -0.162793
v -1.64352 -0.957165 -0.174305
v -1.80499 -0.957165 -0.168426
v -1.80216 -0.957165 -0.175274
v -1.80702 -0.946405 -0.162937
v -1.80734 -0.947335 -0.162518
v -1.81406 -0.955798 -0.146485
v -1.81312 -0.953882 -0.148262
v -1.80645 -0.944614 -0.163579
v -1.60183 -0.937824 -0.160514
v -1.59557 -0.933598 -0.164534
v -1.59543 -0.933554 -0.164606
v -1.59079 -0.933615 -0.164422
v -1.59201 -0.958048 -0.156438
v -1.58758 -0.957959 -0.15817
v -1.58848 -0.933565 -0.167258
v -1.55391 -0.958704 -0.170794
v -1.50829 -0.931815 -0.265938
v -1.45083 -0.933437 -0.325651
v -1.44642 -0.9419 -0.325473
v -1.44157 -0.951809 -0.325374
v -1.44057 -0.953763 -0.325403
v -1.44537 -0.957755 -0.327031
v -1.45822 -0.957165 -0.331012
v -1.56447 -0.957165 -0.201305
v -1.56738 -0.957165 -0.206357
v -1.55967 -0.949116 -0.193315
v -1.55955 -0.949849 -0.192912
v -1.54906 -0.960076 -0.174535
v -1.54926 -0.959616 -0.174981
v -1.55981 -0.947611 -0.194018
v -1.42159 -0.937392 -0.351968
v -1.42121 -0.933598 -0.358208
v -1.42118 -0.933553 -0.358358
v -1.41805 -0.933615 -0.361675
v -1.41212 -0.958047 -0.355754
v -1.41083 -0.957956 -0.360107
v -1.41906 -0.933562 -0.365264
v -1.40157 -0.957355 -0.391234
v -1.4526 -0.931815 -0.484507
v -1.46677 -0.933411 -0.56055
v -1.4637 -0.942372 -0.563757
v -1.4609 -0.951262 -0.56681
v -1.46026 -0.953331 -0.567585
v -1.47045 -0.938111 -0.59992
v -1.47651 -0.933579 -0.605075
v -1.47662 -0.933536 -0.605187
v -1.47744 -0.933595 -0.609313
v -1.46872 -0.958048 -0.610064
v -1.47149 -0.957962 -0.61363
v -1.48082 -0.933547 -0.610704
v -1.49246 -0.959603 -0.642051
v -1.46486 -0.957734 -0.56507
v -1.47588 -0.957165 -0.558632
v -1.43303 -0.957165 -0.405234
v -1.43936 -0.957165 -0.406287
v -1.42373 -0.948758 -0.403853
v -1.42332 -0.949499 -0.403682
v -1.40173 -0.959475 -0.400006
v -1.40247 -0.9588 -0.400193
v -1.42444 -0.947192 -0.404199
v -1.52128 -0.957165 -0.624214
v -1.52586 -0.957165 -0.620577
v -1.51363 -0.949358 -0.630484
v -1.51323 -0.950093 -0.630673
v -1.49581 -0.960495 -0.644379
v -1.49609 -0.960184 -0.644187
v -1.51432 -0.947901 -0.63021
v -1.90972 -0.961685 -0.786257
v -1.97897 -0.961695 -0.109487
v -1.79838 -0.961695 -0.818231
v -1.6486 -0.961695 -0.817316
v -1.84446 -0.961695 -0.048677
v -1.53773 -0.961685 -0.783985
v -1.72912 -0.961685 -0.032897
v -1.61356 -0.961695 -0.047267
v -1.98815 -0.930025 -0.761379
v -2.00708 -0.961695 -0.72702
v -2.04752 -0.930025 -0.714297
v -2.1714 -0.930025 -0.447093
v -2.15411 -0.961695 -0.412008
v -2.16854 -0.930025 -0.37489
v -2.01947 -0.930025 -0.118877
v -1.95654 -0.930025 -0.075927
v -1.95192 -0.930025 -0.783273
v -1.88142 -0.930025 -0.814665
v -1.8058 -0.930025 -0.833306
v -2.09628 -0.930025 -0.657778
v -2.10124 -0.961695 -0.619498
v -2.11863 -0.930025 -0.623541
v -2.14999 -0.930025 -0.557343
v -2.14358 -0.961685 -0.519206
v -2.16736 -0.930025 -0.486893
v -2.15108 -0.930025 -0.304461
v -2.12175 -0.961695 -0.277015
v -2.13602 -0.930025 -0.266982
v -2.0995 -0.930025 -0.203075
v -2.0632 -0.961685 -0.183928
v -2.05066 -0.930025 -0.146617
v -1.6077 -0.930025 -0.825076
v -1.68459 -0.930025 -0.838568
v -1.76286 -0.930025 -0.83852
v -1.56657 -0.930025 -0.812578
v -1.88599 -0.930025 -0.044627
v -1.84486 -0.930025 -0.032127
v -1.64676 -0.930025 -0.023897
v -1.57114 -0.930025 -0.042537
v -1.33393 -0.930025 -0.23366
v -1.33303 -0.961695 -0.272198
v -1.30257 -0.930025 -0.299858
v -1.31655 -0.930025 -0.590219
v -1.34862 -0.961695 -0.614901
v -1.35306 -0.930025 -0.654126
v -1.4019 -0.930025 -0.710584
v -1.44123 -0.961695 -0.723564
v -1.43309 -0.930025 -0.738319
v -1.30149 -0.930025 -0.55274
v -1.49603 -0.930025 -0.781273
v -1.76797 -0.930025 -0.018637
v -1.6897 -0.930025 -0.018677
v -1.50065 -0.930025 -0.073927
v -1.47819 -0.961695 -0.106427
v -1.46442 -0.930025 -0.095817
v -1.40505 -0.930025 -0.142907
v -1.3929 -0.961685 -0.179833
v -1.35629 -0.930025 -0.199422
v -1.28521 -0.930025 -0.370308
v -1.29873 -0.961695 -0.406783
v -1.28116 -0.930025 -0.410108
v -1.28402 -0.930025 -0.482311
v -1.30773 -0.961685 -0.514101
v -1.92237 -0.831335 -0.810925
v -2.02646 -0.831335 -0.747593
v -2.12709 -0.831335 -0.632675
v -2.17236 -0.831335 -0.525456
v -2.18361 -0.831335 -0.410851
v -2.14902 -0.831335 -0.266573
v -2.08644 -0.831335 -0.167052
v -1.99639 -0.831335 -0.087477
v -1.80334 -0.831335 -0.845105
v -1.64326 -0.831335 -0.844127
v -1.85263 -0.831335 -0.022477
v -1.52473 -0.831335 -0.808496
v -1.42156 -0.831335 -0.743898
v -1.32258 -0.831335 -0.627761
v -1.72931 -0.831335 -0.005597
v -1.60577 -0.831335 -0.020977
v -1.46109 -0.831335 -0.084207
v -1.36991 -0.831335 -0.162675
v -1.3059 -0.831335 -0.261423
v -1.26925 -0.831335 -0.405266
v -1.27886 -0.831335 -0.519998
v -1.99245 -0.781785 -0.766825
v -2.1787 -0.781785 -0.447381
v -2.02427 -0.781785 -0.113797
v -1.9556 -0.781785 -0.789093
v -1.88396 -0.781785 -0.820994
v -1.9896 -0.732225 -0.763193
v -1.95314 -0.732225 -0.785229
v -2.10233 -0.781785 -0.661547
v -2.05278 -0.781785 -0.71898
v -2.0983 -0.732225 -0.659052
v -2.04928 -0.732225 -0.715866
v -1.99616 -0.678355 -0.715378
v -2.08662 -0.678355 -0.612086
v -2.12507 -0.781785 -0.626723
v -2.15694 -0.781785 -0.559453
v -2.17458 -0.781785 -0.487862
v -2.17385 -0.732225 -0.447175
v -2.15232 -0.732225 -0.55805
v -2.12079 -0.732225 -0.624594
v -2.16977 -0.732225 -0.487232
v -2.12732 -0.678355 -0.515677
v -2.13744 -0.678355 -0.412627
v -2.17579 -0.781785 -0.374009
v -2.15804 -0.781785 -0.30244
v -2.15341 -0.732225 -0.303798
v -2.17097 -0.732225 -0.374595
v -2.10635 -0.678355 -0.282945
v -2.14273 -0.781785 -0.26432
v -2.10562 -0.781785 -0.199378
v -2.05599 -0.781785 -0.142007
v -2.02107 -0.732225 -0.117167
v -2.10155 -0.732225 -0.201837
v -2.13825 -0.732225 -0.266077
v -2.05245 -0.732225 -0.145087
v -2.05008 -0.678355 -0.193457
v -1.96911 -0.678355 -0.121907
v -1.96031 -0.781785 -0.070147
v -1.88863 -0.781785 -0.038337
v -1.88227 -0.732225 -0.816785
v -1.80712 -0.781785 -0.839936
v -1.76345 -0.781785 -0.84524
v -1.80626 -0.732225 -0.835523
v -1.90258 -0.678355 -0.772326
v -1.76305 -0.732225 -0.840771
v -1.68391 -0.781785 -0.845289
v -1.60577 -0.781785 -0.831578
v -1.68437 -0.732225 -0.84082
v -1.79554 -0.678355 -0.803059
v -1.60707 -0.732225 -0.827257
v -1.56394 -0.781785 -0.818866
v -1.56567 -0.732225 -0.814678
v -1.9578 -0.732225 -0.073987
v -1.88689 -0.732225 -0.042527
v -1.83989 -0.678355 -0.063487
v -1.49225 -0.781785 -0.787054
v -1.84679 -0.781785 -0.025627
v -1.76865 -0.781785 -0.011907
v -1.7682 -0.732225 -0.016377
v -1.84549 -0.732225 -0.029947
v -1.72901 -0.678355 -0.048307
v -1.68911 -0.781785 -0.011957
v -1.64544 -0.781785 -0.017267
v -1.64631 -0.732225 -0.021677
v -1.68952 -0.732225 -0.016427
v -1.5686 -0.781785 -0.036207
v -1.49696 -0.781785 -0.068107
v -1.49943 -0.732225 -0.071967
v -1.57029 -0.732225 -0.040417
v -1.48788 -0.678355 -0.118967
v -1.46011 -0.781785 -0.090377
v -1.39978 -0.781785 -0.138217
v -1.49476 -0.732225 -0.783209
v -1.4283 -0.781785 -0.743405
v -1.39658 -0.781785 -0.715195
v -1.4315 -0.732225 -0.740031
v -1.54508 -0.678355 -0.770143
v -1.40011 -0.732225 -0.712117
v -1.34694 -0.781785 -0.657823
v -1.30984 -0.781785 -0.592881
v -1.35101 -0.732225 -0.655364
v -1.45231 -0.678355 -0.712057
v -1.31431 -0.732225 -0.591123
v -1.29452 -0.781785 -0.554761
v -1.36335 -0.678355 -0.607668
v -1.29915 -0.732225 -0.553402
v -1.40328 -0.732225 -0.141337
v -1.46296 -0.732225 -0.094007
v -1.40589 -0.678355 -0.189523
v -1.35023 -0.781785 -0.195654
v -1.32749 -0.781785 -0.230477
v -1.33177 -0.732225 -0.232607
v -1.35427 -0.732225 -0.198149
v -1.34833 -0.678355 -0.278315
v -1.29563 -0.781785 -0.297747
v -1.27798 -0.781785 -0.369338
v -1.30024 -0.732225 -0.299151
v -1.28279 -0.732225 -0.369969
v -1.31539 -0.678355 -0.407606
v -1.27386 -0.781785 -0.409819
v -1.27677 -0.781785 -0.483191
v -1.28159 -0.732225 -0.482606
v -1.27872 -0.732225 -0.410026
v -1.32403 -0.678355 -0.510771
v -1.65341 -0.897341 -0.520062
v -1.63824 -0.875453 -0.532326
v -1.56055 -0.921836 -0.593442
v -1.63448 -0.866928 -0.538072
v -1.57918 -0.904196 -0.580479
v -1.59517 -0.889125 -0.569442
v -1.65769 -0.856265 -0.55788
v -1.62994 -0.909803 -0.498566
v -1.62974 -0.909709 -0.498088
v -1.62311 -0.906535 -0.481936
v -1.49769 -0.93643 -0.545156
v -1.6061 -0.887478 -0.480189
v -1.51051 -0.923994 -0.536002
v -1.59701 -0.876456 -0.482293
v -1.53977 -0.895731 -0.515659
v -1.55968 -0.876497 -0.501815
v -1.58768 -0.864955 -0.485118
v -1.57402 -0.856265 -0.459703
v -1.48483 -0.921073 -0.414159
v -1.50761 -0.903247 -0.419366
v -1.52378 -0.890604 -0.423129
v -1.57655 -0.86682 -0.431938
v -1.58376 -0.875359 -0.431006
v -1.60356 -0.897247 -0.434116
v -1.607 -0.90969 -0.403295
v -1.60697 -0.909824 -0.402695
v -1.61672 -0.906487 -0.387397
v -1.48273 -0.936983 -0.337973
v -1.6069 -0.887562 -0.374997
v -1.49831 -0.924756 -0.341352
v -1.59941 -0.876555 -0.36982
v -1.53157 -0.898424 -0.348969
v -1.55894 -0.876753 -0.355237
v -1.59112 -0.865034 -0.364905
v -1.60501 -0.856265 -0.338105
v -1.58863 -0.921523 -0.243815
v -1.59827 -0.903805 -0.263479
v -1.60589 -0.889717 -0.279175
v -1.63069 -0.866883 -0.322024
v -1.63594 -0.875414 -0.326672
v -1.64558 -0.897303 -0.342989
v -1.67383 -0.909812 -0.326333
v -1.67394 -0.909793 -0.32632
v -1.69289 -0.906516 -0.323864
v -1.6529 -0.936647 -0.196698
v -1.69802 -0.887511 -0.308986
v -1.65973 -0.924292 -0.210188
v -1.69779 -0.876495 -0.300342
v -1.67444 -0.896802 -0.240202
v -1.68525 -0.876591 -0.26227
v -1.69684 -0.864984 -0.291306
v -1.72731 -0.856265 -0.284652
v -1.78434 -0.918367 -0.217398
v -1.77436 -0.899973 -0.23736
v -1.7726 -0.896747 -0.240861
v -1.75026 -0.866443 -0.292777
v -1.74992 -0.875026 -0.299508
v -1.74328 -0.89616 -0.316048
v -1.74304 -0.896922 -0.316644
v -1.74613 -0.903283 -0.321654
v -1.77446 -0.908758 -0.326122
v -1.78017 -0.909862 -0.327023
v -1.79422 -0.906257 -0.338924
v -1.87105 -0.939397 -0.219297
v -1.80598 -0.887926 -0.329469
v -1.86494 -0.92816 -0.231913
v -1.81285 -0.876989 -0.323652
v -1.8551 -0.910397 -0.251628
v -1.8371 -0.877941 -0.287653
v -1.81969 -0.865399 -0.316975
v -1.84884 -0.856265 -0.339594
v -1.9443 -0.919204 -0.340801
v -1.92119 -0.900968 -0.345786
v -1.9132 -0.894684 -0.347476
v -1.85141 -0.875129 -0.36654
v -1.85737 -0.866558 -0.362662
v -1.83245 -0.89702 -0.372066
v -1.84395 -0.909053 -0.400829
v -1.84592 -0.909858 -0.404161
v -1.84451 -0.90634 -0.421762
v -1.99192 -0.93855 -0.405987
v -1.85964 -0.887798 -0.425895
v -1.97701 -0.926956 -0.409376
v -1.86884 -0.876836 -0.427335
v -1.95044 -0.906225 -0.415105
v -1.91366 -0.877528 -0.423036
v -1.87871 -0.865273 -0.428222
v -1.87808 -0.856265 -0.46156
v -1.93646 -0.918598 -0.528781
v -1.91766 -0.900246 -0.515318
v -1.91349 -0.896165 -0.512302
v -1.86425 -0.866475 -0.48088
v -1.85722 -0.875055 -0.479052
v -1.8408 -0.896782 -0.469059
v -1.84067 -0.896949 -0.468982
v -1.83487 -0.903227 -0.470252
v -1.82362 -0.90884 -0.495167
v -1.82157 -0.909862 -0.499704
v -1.80585 -0.906281 -0.509683
v -1.91398 -0.939158 -0.605675
v -1.81282 -0.88789 -0.522602
v -1.90195 -0.927819 -0.597273
v -1.8174 -0.876946 -0.530096
v -1.88251 -0.909203 -0.583351
v -1.84973 -0.877824 -0.559883
v -1.8229 -0.865363 -0.537748
v -1.79301 -0.856265 -0.558707
v -1.76433 -0.921216 -0.649465
v -1.7648 -0.903425 -0.627832
v -1.76522 -0.890315 -0.61186
v -1.76028 -0.875376 -0.556422
v -1.76286 -0.86684 -0.562705
v -1.7592 -0.897265 -0.537896
v -1.72585 -0.909738 -0.541644
v -1.72547 -0.90982 -0.54174
v -1.70714 -0.906497 -0.536357
v -1.68432 -0.936866 -0.66761
v -1.696 -0.887544 -0.547876
v -1.68444 -0.924596 -0.652795
v -1.69218 -0.876534 -0.555768
v -1.68516 -0.897891 -0.62075
v -1.68882 -0.865018 -0.564308
v -1.68572 -0.8767 -0.59532
v -1.70702 -0.906895 -0.464901
v -1.72596 -0.906895 -0.473463
v -1.74502 -0.906895 -0.465133
v -1.68808 -0.906895 -0.45634
v -1.68353 -0.906895 -0.437334
v -1.67897 -0.906895 -0.418328
v -1.76408 -0.906895 -0.456804
v -1.76891 -0.906895 -0.437855
v -1.69223 -0.906895 -0.40319
v -1.77373 -0.906895 -0.418907
v -1.7607 -0.906895 -0.403608
v -1.70548 -0.906895 -0.388052
v -1.72657 -0.906895 -0.38818
v -1.74766 -0.906895 -0.388309
v -1.74331 -0.862253 -0.587643
v -1.74131 -0.858501 -0.579363
v -1.72514 -0.856265 -0.588371
v -1.73627 -0.86572 -0.594893
v -1.72517 -0.86105 -0.584204
v -1.7235 -0.860829 -0.583646
v -1.60072 -0.862613 -0.539819
v -1.6069 -0.85863 -0.532851
v -1.59025 -0.856265 -0.527389
v -1.59165 -0.865628 -0.539371
v -1.59378 -0.861031 -0.524823
v -1.59322 -0.860814 -0.523276
v -1.88621 -0.861007 -0.375089
v -1.87975 -0.858048 -0.378123
v -1.89528 -0.856265 -0.394079
v -1.89981 -0.865986 -0.382287
v -1.89083 -0.86109 -0.394987
v -1.89063 -0.860853 -0.396615
v -1.77843 -0.860478 -0.280377
v -1.77721 -0.857854 -0.286203
v -1.80241 -0.856265 -0.28511
v -1.79518 -0.866086 -0.274375
v -1.80041 -0.861095 -0.288887
v -1.80166 -0.860852 -0.290048
v -1.5547 -0.862163 -0.40882
v -1.56375 -0.858469 -0.408847
v -1.5578 -0.856265 -0.392017
v -1.54841 -0.865739 -0.4006
v -1.56219 -0.861054 -0.392972
v -1.56315 -0.860831 -0.391597
v -1.63647 -0.862431 -0.291492
v -1.64231 -0.858565 -0.298374
v -1.65222 -0.856265 -0.284193
v -1.63919 -0.865673 -0.282782
v -1.65414 -0.86104 -0.287951
v -1.6559 -0.860821 -0.28779
v -1.87125 -0.860627 -0.509109
v -1.86517 -0.857909 -0.506615
v -1.86089 -0.856265 -0.529042
v -1.8738 -0.866061 -0.524932
v -1.85734 -0.861095 -0.526398
v -1.85584 -0.860854 -0.527266
# </points>

# <edges count="1210">
l 332 333
l 333 334
l 1 178
l 179 1
l 2 180
l 3 2
l 1 3
l 335 181
l 4 182
l 336 183
l 336 184
l 337 338
l 339 338
l 4 185
l 5 186
l 6 5
l 4 6
l 7 187
l 340 188
l 340 189
l 341 342
l 343 342
l 7 190
l 8 191
l 9 8
l 7 9
l 10 192
l 344 193
l 345 346
l 347 346
l 10 194
l 11 195
l 12 11
l 10 12
l 335 196
l 13 197
l 348 198
l 348 199
l 349 350
l 351 350
l 13 200
l 14 201
l 15 14
l 13 15
l 16 202
l 352 203
l 352 204
l 353 354
l 355 354
l 16 205
l 17 206
l 18 17
l 16 18
l 19 207
l 356 208
l 357 358
l 359 358
l 19 209
l 356 210
l 20 211
l 21 20
l 19 21
l 344 212
l 213 22
l 22 360
l 361 360
l 362 22
l 362 23
l 215 24
l 216 25
l 217 26
l 26 363
l 364 363
l 26 365
l 365 27
l 218 28
l 219 29
l 220 30
l 30 366
l 367 366
l 368 30
l 368 31
l 222 32
l 214 33
l 221 34
l 369 33
l 35 361
l 23 35
l 235 23
l 35 234
l 33 370
l 371 370
l 369 36
l 372 34
l 373 34
l 37 371
l 36 37
l 237 36
l 37 236
l 24 374
l 24 375
l 376 374
l 375 38
l 39 376
l 38 39
l 39 238
l 38 239
l 25 377
l 378 377
l 25 379
l 379 40
l 41 378
l 40 41
l 42 364
l 27 42
l 41 240
l 40 242
l 42 241
l 27 243
l 28 380
l 28 381
l 382 380
l 381 43
l 44 382
l 43 44
l 245 43
l 44 244
l 29 383
l 384 383
l 29 385
l 385 45
l 46 384
l 45 46
l 47 367
l 31 47
l 46 246
l 45 248
l 249 31
l 47 247
l 226 48
l 225 49
l 224 50
l 32 386
l 387 386
l 388 32
l 389 373
l 388 51
l 372 52
l 53 389
l 52 53
l 251 52
l 252 51
l 54 387
l 51 54
l 390 50
l 54 253
l 53 250
l 223 55
l 55 391
l 55 392
l 393 391
l 392 56
l 57 393
l 56 57
l 57 254
l 56 255
l 227 58
l 228 59
l 59 394
l 395 394
l 59 396
l 396 60
l 229 61
l 230 62
l 231 63
l 63 397
l 398 397
l 63 399
l 399 64
l 232 65
l 233 66
l 48 400
l 401 400
l 48 402
l 402 67
l 49 403
l 49 404
l 405 403
l 404 68
l 69 405
l 68 69
l 257 67
l 70 401
l 67 70
l 406 66
l 70 258
l 69 256
l 68 259
l 50 407
l 408 407
l 390 71
l 72 408
l 71 72
l 261 71
l 72 260
l 58 409
l 410 409
l 58 411
l 411 73
l 74 410
l 73 74
l 75 395
l 60 75
l 74 262
l 73 264
l 75 263
l 60 265
l 61 412
l 61 413
l 414 412
l 413 76
l 77 414
l 76 77
l 267 76
l 77 266
l 62 415
l 416 415
l 62 417
l 417 78
l 79 416
l 78 79
l 80 398
l 64 80
l 79 268
l 78 270
l 80 269
l 64 271
l 65 418
l 65 419
l 420 418
l 419 81
l 82 420
l 81 82
l 273 81
l 82 272
l 66 421
l 422 421
l 406 83
l 84 422
l 83 84
l 275 83
l 84 274
l 277 85
l 85 423
l 85 424
l 423 425
l 278 86
l 279 87
l 280 88
l 88 426
l 88 427
l 426 428
l 281 89
l 282 90
l 283 91
l 91 429
l 91 430
l 429 431
l 285 92
l 284 93
l 276 94
l 432 94
l 94 433
l 434 433
l 435 432
l 86 436
l 86 437
l 438 436
l 424 439
l 425 440
l 441 440
l 95 439
l 95 441
l 297 95
l 438 442
l 437 443
l 87 444
l 87 445
l 446 444
l 445 447
l 443 96
l 448 446
l 298 96
l 97 442
l 96 97
l 449 448
l 447 98
l 98 449
l 98 299
l 428 450
l 427 451
l 89 452
l 89 453
l 454 452
l 455 450
l 99 451
l 99 455
l 300 99
l 454 456
l 453 457
l 90 458
l 90 459
l 460 458
l 459 461
l 457 100
l 462 460
l 301 100
l 463 456
l 100 463
l 464 462
l 461 101
l 101 464
l 101 302
l 431 465
l 430 466
l 467 465
l 102 435
l 303 102
l 102 468
l 469 434
l 470 93
l 93 471
l 472 471
l 470 473
l 468 469
l 103 473
l 474 472
l 475 92
l 92 476
l 477 476
l 475 478
l 304 103
l 479 474
l 103 479
l 104 478
l 305 104
l 104 480
l 481 477
l 480 481
l 466 105
l 105 467
l 105 306
l 289 106
l 288 107
l 287 108
l 482 108
l 108 483
l 484 483
l 485 482
l 286 109
l 109 486
l 109 487
l 486 488
l 488 489
l 487 490
l 290 110
l 110 491
l 110 492
l 493 491
l 490 111
l 494 489
l 111 494
l 307 111
l 493 495
l 492 496
l 497 495
l 291 112
l 112 498
l 112 499
l 498 500
l 496 113
l 113 497
l 113 308
l 500 501
l 499 502
l 503 501
l 309 308
l 292 114
l 114 504
l 114 505
l 506 504
l 115 502
l 115 503
l 115 310
l 506 507
l 505 508
l 509 311
l 116 485
l 311 116
l 116 510
l 511 484
l 512 107
l 107 513
l 514 513
l 512 515
l 510 511
l 117 515
l 516 514
l 517 106
l 106 518
l 519 518
l 517 520
l 312 117
l 521 516
l 117 521
l 118 520
l 313 118
l 118 522
l 523 519
l 522 523
l 293 119
l 119 524
l 119 525
l 526 524
l 508 120
l 527 507
l 120 527
l 314 120
l 526 528
l 525 529
l 530 528
l 294 121
l 121 531
l 121 532
l 531 533
l 529 122
l 122 530
l 122 315
l 533 534
l 532 535
l 536 534
l 535 123
l 123 536
l 123 316
l 295 124
l 124 537
l 124 538
l 537 539
l 539 540
l 538 541
l 296 125
l 125 542
l 543 125
l 544 542
l 545 543
l 541 126
l 546 544
l 547 540
l 126 547
l 317 126
l 548 546
l 545 127
l 127 548
l 318 127
l 20 319
l 21 320
l 17 321
l 18 322
l 15 323
l 8 324
l 9 325
l 5 326
l 6 327
l 2 328
l 3 329
l 11 330
l 12 331
l 549 550
l 551 549
l 552 551
l 550 553
l 554 552
l 555 554
l 553 556
l 556 557
l 557 558
l 558 559
l 560 555
l 561 560
l 562 561
l 559 562
l 563 564
l 564 332
l 334 563
l 565 566
l 566 567
l 567 568
l 569 565
l 570 569
l 568 179
l 178 570
l 180 178
l 571 179
l 572 128
l 128 571
l 128 573
l 573 574
l 574 575
l 181 575
l 576 181
l 577 576
l 578 129
l 129 579
l 580 129
l 182 579
l 580 581
l 581 582
l 183 582
l 583 183
l 584 583
l 585 586
l 184 585
l 587 588
l 588 184
l 180 589
l 589 590
l 130 578
l 590 130
l 587 591
l 130 591
l 182 592
l 592 593
l 593 594
l 594 595
l 337 596
l 596 597
l 597 339
l 598 595
l 599 598
l 185 599
l 186 185
l 600 131
l 131 601
l 602 131
l 187 601
l 602 603
l 603 604
l 188 604
l 605 188
l 606 605
l 607 608
l 189 607
l 609 610
l 610 189
l 186 611
l 611 612
l 132 600
l 612 132
l 609 613
l 132 613
l 187 614
l 614 615
l 615 616
l 616 617
l 341 618
l 618 619
l 619 343
l 620 617
l 621 620
l 190 621
l 191 190
l 622 133
l 133 623
l 624 133
l 192 623
l 624 625
l 625 626
l 193 626
l 192 627
l 627 628
l 628 629
l 629 630
l 345 631
l 631 632
l 632 347
l 633 630
l 634 633
l 194 634
l 635 193
l 636 635
l 195 194
l 637 638
l 196 637
l 639 640
l 640 196
l 195 641
l 641 642
l 134 572
l 642 134
l 639 643
l 134 643
l 644 135
l 135 645
l 646 135
l 197 645
l 646 647
l 647 648
l 198 648
l 649 198
l 650 649
l 651 652
l 199 651
l 653 654
l 654 199
l 191 655
l 655 656
l 136 644
l 656 136
l 653 657
l 136 657
l 197 658
l 658 659
l 659 660
l 660 661
l 349 662
l 662 663
l 663 351
l 664 661
l 665 664
l 200 665
l 201 200
l 666 137
l 137 667
l 668 137
l 202 667
l 668 669
l 669 670
l 203 670
l 671 203
l 672 671
l 673 674
l 204 673
l 675 676
l 676 204
l 201 677
l 677 678
l 138 666
l 678 138
l 675 679
l 138 679
l 202 680
l 680 681
l 681 682
l 682 683
l 353 684
l 684 685
l 685 355
l 686 683
l 687 686
l 205 687
l 206 205
l 688 139
l 139 689
l 690 139
l 207 689
l 690 691
l 691 692
l 208 692
l 207 693
l 693 694
l 694 695
l 695 696
l 357 697
l 697 698
l 698 359
l 699 696
l 700 699
l 209 700
l 701 208
l 702 701
l 703 704
l 210 703
l 705 706
l 706 210
l 206 707
l 707 708
l 140 688
l 708 140
l 705 709
l 140 709
l 211 209
l 710 711
l 212 710
l 712 713
l 713 212
l 211 714
l 714 715
l 141 622
l 715 141
l 712 716
l 141 716
l 214 717
l 220 718
l 221 719
l 222 720
l 223 721
l 224 722
l 227 723
l 228 724
l 725 726
l 727 213
l 728 729
l 217 730
l 731 718
l 732 220
l 214 733
l 234 725
l 727 235
l 235 234
l 734 717
l 735 221
l 236 734
l 733 237
l 237 236
l 736 737
l 215 738
l 736 238
l 738 239
l 239 238
l 739 740
l 216 741
l 739 240
l 241 728
l 741 242
l 730 243
l 242 240
l 243 241
l 742 743
l 744 218
l 742 244
l 744 245
l 245 244
l 745 746
l 219 747
l 745 246
l 247 731
l 747 248
l 732 249
l 248 246
l 249 247
l 748 720
l 749 222
l 750 719
l 250 750
l 735 251
l 749 252
l 253 748
l 751 224
l 252 253
l 251 250
l 752 721
l 752 254
l 223 753
l 753 255
l 255 254
l 754 724
l 228 755
l 756 757
l 231 758
l 759 760
l 226 761
l 762 763
l 225 764
l 256 762
l 761 257
l 258 759
l 765 233
l 764 259
l 257 258
l 259 256
l 766 722
l 766 260
l 751 261
l 261 260
l 767 723
l 227 768
l 767 262
l 263 754
l 768 264
l 755 265
l 264 262
l 265 263
l 769 770
l 771 229
l 769 266
l 771 267
l 267 266
l 772 773
l 230 774
l 772 268
l 269 756
l 774 270
l 758 271
l 270 268
l 271 269
l 775 776
l 777 232
l 775 272
l 777 273
l 273 272
l 778 779
l 778 274
l 765 275
l 275 274
l 276 780
l 277 781
l 278 782
l 279 783
l 280 784
l 281 785
l 282 786
l 283 787
l 284 788
l 285 789
l 286 790
l 287 791
l 288 792
l 289 793
l 290 794
l 291 795
l 292 796
l 293 797
l 294 798
l 295 799
l 296 800
l 801 781
l 802 784
l 803 787
l 276 804
l 780 805
l 806 801
l 804 807
l 782 808
l 277 809
l 808 810
l 809 811
l 812 806
l 811 297
l 810 813
l 278 814
l 783 815
l 279 816
l 817 802
l 818 815
l 814 819
l 816 820
l 819 298
l 821 818
l 820 299
l 817 822
l 280 823
l 785 824
l 825 824
l 823 826
l 826 300
l 825 827
l 281 828
l 786 829
l 282 830
l 831 803
l 829 832
l 828 833
l 830 834
l 833 301
l 835 832
l 834 302
l 831 836
l 283 837
l 790 838
l 303 807
l 839 805
l 840 284
l 788 841
l 840 842
l 843 839
l 304 842
l 844 841
l 845 285
l 846 789
l 845 847
l 848 844
l 305 847
l 849 846
l 850 287
l 509 849
l 851 850
l 837 852
l 838 853
l 852 306
l 853 854
l 855 791
l 286 856
l 794 857
l 858 857
l 856 859
l 859 307
l 858 860
l 290 861
l 795 862
l 863 862
l 861 864
l 864 308
l 863 309
l 291 865
l 796 866
l 867 866
l 865 868
l 868 310
l 867 869
l 292 870
l 797 871
l 311 851
l 872 855
l 873 288
l 874 792
l 873 875
l 876 872
l 312 875
l 877 874
l 878 289
l 879 793
l 878 880
l 881 877
l 313 880
l 882 879
l 883 296
l 884 882
l 885 883
l 871 886
l 870 887
l 887 314
l 886 888
l 293 889
l 798 890
l 891 890
l 889 892
l 892 315
l 891 893
l 294 894
l 799 895
l 894 896
l 895 897
l 896 316
l 897 898
l 295 899
l 800 900
l 900 901
l 899 902
l 902 317
l 903 901
l 885 318
l 904 905
l 906 711
l 319 904
l 905 907
l 908 906
l 908 909
l 909 142
l 142 910
l 907 142
l 319 911
l 912 911
l 320 913
l 913 912
l 702 914
l 915 320
l 914 916
l 917 915
l 918 916
l 918 919
l 920 917
l 143 919
l 921 143
l 143 920
l 704 922
l 922 923
l 923 924
l 924 144
l 144 921
l 925 144
l 926 925
l 927 926
l 321 927
l 928 321
l 928 929
l 322 930
l 930 929
l 672 931
l 932 322
l 931 933
l 934 932
l 935 933
l 935 936
l 937 934
l 145 936
l 938 145
l 145 937
l 674 939
l 939 940
l 940 941
l 941 146
l 146 938
l 942 146
l 943 942
l 944 943
l 147 944
l 147 945
l 946 945
l 323 947
l 947 946
l 650 948
l 949 323
l 948 950
l 951 949
l 952 950
l 952 953
l 954 951
l 148 953
l 955 148
l 148 954
l 652 956
l 956 957
l 957 958
l 149 955
l 958 149
l 959 960
l 149 959
l 960 961
l 962 961
l 324 962
l 324 963
l 964 963
l 964 965
l 325 966
l 966 965
l 606 967
l 968 325
l 967 969
l 970 968
l 971 969
l 971 972
l 973 970
l 150 972
l 974 150
l 150 973
l 608 975
l 975 976
l 976 977
l 977 151
l 151 974
l 978 979
l 979 151
l 980 978
l 326 980
l 981 326
l 981 982
l 327 983
l 983 982
l 584 984
l 985 327
l 984 986
l 987 985
l 988 986
l 988 989
l 990 987
l 152 989
l 991 152
l 152 990
l 586 992
l 992 993
l 993 994
l 153 991
l 994 153
l 995 996
l 153 995
l 996 997
l 998 997
l 328 998
l 328 999
l 1000 999
l 1000 1001
l 329 1002
l 1002 1001
l 577 1003
l 1004 329
l 1003 1005
l 1006 1004
l 1007 1005
l 1007 1008
l 1009 1006
l 154 1008
l 1010 154
l 154 1009
l 638 1011
l 1011 1012
l 1012 1013
l 1013 155
l 155 1010
l 1014 1015
l 1015 155
l 1016 1014
l 330 1016
l 1017 330
l 1017 1018
l 331 1019
l 1019 1018
l 636 1020
l 1021 331
l 1020 1022
l 1023 1021
l 1024 1022
l 1023 1025
l 156 910
l 1025 156
l 1024 1026
l 156 1026
l 1027 1028
l 1028 1029
l 1030 1027
l 1030 1031
l 1032 1031
l 1029 1033
l 1033 1034
l 1032 1035
l 1034 1036
l 1037 1036
l 1038 1035
l 1038 1039
l 1040 1039
l 1040 1037
l 1041 157
l 157 1042
l 1043 157
l 1041 1044
l 1045 1042
l 1044 158
l 1045 1046
l 159 158
l 1046 159
l 159 1043
l 1047 160
l 160 1048
l 1049 160
l 1047 1050
l 1051 1048
l 1050 161
l 1051 1052
l 162 161
l 1052 162
l 162 1049
l 1053 163
l 163 1054
l 1055 163
l 1053 1056
l 1057 1054
l 1056 164
l 1057 1058
l 165 164
l 1058 165
l 165 1055
l 1059 166
l 166 1060
l 1061 166
l 1059 1062
l 1063 1060
l 1062 167
l 1063 1064
l 168 167
l 1064 168
l 168 1061
l 1065 169
l 169 1066
l 1067 169
l 1065 1068
l 1069 1066
l 1068 170
l 1069 1070
l 171 170
l 1070 171
l 171 1067
l 1071 172
l 172 1072
l 1073 172
l 1071 1074
l 1075 1072
l 1074 173
l 1075 1076
l 174 173
l 1076 174
l 174 1073
l 1077 175
l 175 1078
l 1079 175
l 1077 1080
l 1081 1078
l 1080 176
l 1081 1082
l 177 176
l 1082 177
l 177 1079
# </edges>
